<svg width="111" height="110" viewBox="0 0 111 110" fill="none" xmlns="http://www.w3.org/2000/svg">
<mask id="mask0_503_4570" style="mask-type:luminance" maskUnits="userSpaceOnUse" x="13" y="4" width="84" height="101">
<path d="M13.7344 4.96875H96.2344V104.37H13.7344V4.96875Z" fill="white"/>
</mask>
<g mask="url(#mask0_503_4570)">
<path d="M50.5782 8.4375C54.0313 10.5156 71.5417 22.0677 76.5782 45.625C76.8386 46.8333 77.7553 47.75 78.9636 48.0156C80.1876 48.2865 81.3959 47.8333 82.1303 46.8385C83.4272 45.0885 84.5105 42.8021 85.349 40.0365C88.2449 44.5417 92.849 53.5417 92.849 65.099C92.849 77.026 86.698 87.6146 77.2553 94.1615C81.823 88.9219 84.6199 82.0833 84.6199 74.5833C84.6199 58.1823 71.323 44.8281 54.9845 44.8281C38.6407 44.8281 25.349 58.1823 25.349 74.5833C25.349 82.0833 28.1459 88.9219 32.7084 94.1615C23.2709 87.6146 17.1147 77.026 17.1147 65.099C17.1147 58.7188 18.297 53.526 19.2709 50.3073C20.3542 52.9479 21.6928 55.0469 23.2501 56.5469C24.2032 57.4583 25.5574 57.7083 26.7865 57.1875C28.0105 56.6771 28.7865 55.5417 28.8126 54.224C28.8699 50.401 29.9376 43.0365 36.3907 36.5781C46.0313 26.9115 50.1407 20.8646 50.5782 8.4375ZM54.9845 101.042C40.4532 101.042 28.6407 89.1719 28.6407 74.5833C28.6407 60.0052 40.4532 48.1354 54.9845 48.1354C69.5105 48.1354 81.323 60.0052 81.323 74.5833C81.323 89.1719 69.5105 101.042 54.9845 101.042ZM54.9845 104.37C77.6772 104.37 96.1407 86.75 96.1407 65.099C96.1407 52.4115 90.9792 42.6198 87.9063 37.9167C87.2292 36.8802 86.047 36.3594 84.823 36.5417C83.6095 36.7188 82.6355 37.5677 82.297 38.7448C81.4584 41.6198 80.4688 43.4531 79.7188 44.5417C74.2813 19.9115 55.9063 7.79167 52.2709 5.59896C51.2709 5 50.073 4.97396 49.0574 5.53125C48.0365 6.08333 47.4063 7.09896 47.3595 8.25521C46.9063 19.4583 43.4845 24.8021 34.0626 34.2396C26.7917 41.5208 25.5886 49.849 25.5261 54.151C24.3178 53 23.2136 51.2292 22.3178 49.0469C21.7761 47.7396 20.5313 46.9219 19.1251 47.0052C17.7345 47.0677 16.5626 47.9792 16.1511 49.3177C15.0886 52.7604 13.823 58.3021 13.823 65.099C13.823 86.75 32.2865 104.37 54.9845 104.37Z" fill="#FFBC41"/>
</g>
<path d="M41.1458 66.6562C40.4271 66.1094 39.3906 66.2552 38.8438 66.9948L36.8698 69.6354V67.9844C36.8698 67.0729 36.1302 66.3281 35.224 66.3281C34.3177 66.3281 33.5781 67.0729 33.5781 67.9844V81.2135C33.5781 82.125 34.3177 82.8646 35.224 82.8646C36.1302 82.8646 36.8698 82.125 36.8698 81.2135V79.5573L38.8438 82.2031C39.1719 82.6406 39.6615 82.8646 40.1667 82.8646C40.5104 82.8646 40.8542 82.7552 41.1458 82.5365C41.8802 81.9896 42.0313 80.9531 41.4844 80.224L37.2812 74.599L41.4844 68.9687C42.0313 68.2396 41.8802 67.2083 41.1458 66.6562Z" fill="#FFBC41"/>
<path d="M48.3958 69.6354C49.302 69.6354 50.0416 70.3802 50.0416 71.2917C50.0416 72.2031 50.7812 72.9427 51.6874 72.9427C52.5937 72.9427 53.3333 72.2031 53.3333 71.2917C53.3333 68.5521 51.1249 66.3281 48.3958 66.3281C45.6718 66.3281 43.4583 68.5521 43.4583 71.2917V77.9062C43.4583 80.6458 45.6718 82.8646 48.3958 82.8646C51.1249 82.8646 53.3333 80.6458 53.3333 77.9062C53.3333 76.9948 52.5937 76.25 51.6874 76.25C50.7812 76.25 50.0416 76.9948 50.0416 77.9062C50.0416 78.8177 49.302 79.5573 48.3958 79.5573C47.4895 79.5573 46.7499 78.8177 46.7499 77.9062V71.2917C46.7499 70.3802 47.4895 69.6354 48.3958 69.6354Z" fill="#FFBC41"/>
<path d="M63.2135 74.599H59.9218V71.2917C59.9218 70.3802 60.6614 69.6354 61.5676 69.6354C62.4739 69.6354 63.2135 70.3802 63.2135 71.2917V74.599ZM61.5676 66.3281C58.8385 66.3281 56.6301 68.5521 56.6301 71.2917V81.2135C56.6301 82.125 57.3697 82.8646 58.276 82.8646C59.1822 82.8646 59.9218 82.125 59.9218 81.2135V77.9062H63.2135V81.2135C63.2135 82.125 63.953 82.8646 64.8593 82.8646C65.7655 82.8646 66.5051 82.125 66.5051 81.2135V71.2917C66.5051 68.5521 64.2968 66.3281 61.5676 66.3281Z" fill="#FFBC41"/>
<path d="M76.3853 79.5573H73.0937V67.9844C73.0937 67.0729 72.3541 66.3281 71.4478 66.3281C70.5416 66.3281 69.802 67.0729 69.802 67.9844V81.2135C69.802 82.125 70.5416 82.8646 71.4478 82.8646H76.3853C77.2916 82.8646 78.0312 82.125 78.0312 81.2135C78.0312 80.3021 77.2916 79.5573 76.3853 79.5573Z" fill="#FFBC41"/>
</svg>
