<svg width="110" height="110" viewBox="0 0 110 110" fill="none" xmlns="http://www.w3.org/2000/svg">
<path d="M80.5001 46.0156C80.9376 46.1615 81.2293 46.1615 81.6668 46.3073C82.5366 46.599 83.2657 46.7448 83.9949 46.7448C83.2657 47.3334 82.6824 48.0625 82.0991 48.7917C81.6668 47.7709 81.0834 46.8906 80.5001 46.0156ZM92.8699 35.2031C92.5782 37.6875 91.5626 40.9011 90.1043 42.2188C88.797 43.5313 86.0314 44.1146 83.7032 43.9688C84.2866 41.9271 85.448 39.1511 86.6147 37.8334C87.7762 36.6667 90.6876 35.6406 92.8699 35.2031ZM76.7189 31.2604C81.0834 34.6198 81.9532 37.8334 80.9376 43.2396C78.7553 42.3646 76.4272 40.4636 75.8439 38.7084C75.4064 36.375 75.4064 33.8906 76.7189 31.2604ZM95.6355 24.8334C95.198 27.3125 94.1824 30.2344 92.7241 31.4063C91.2709 32.5729 88.0678 33.3073 85.7397 33.0104C86.4689 30.9688 87.3387 28.7761 89.2345 27.0209C90.3959 25.8542 93.4532 25.125 95.6355 24.8334ZM79.4793 20.0104C81.8126 21.6146 83.1199 23.8073 83.5574 25.4167C83.9949 27.0209 83.5574 30.0886 83.1199 32.2813C81.0834 31.2604 78.7553 29.3594 78.4637 27.4636C77.5887 24.099 78.4637 21.9115 79.4793 20.0104ZM90.1043 12.1198C91.4168 14.4584 91.8543 17.9636 91.4168 19.5729C90.9793 21.3229 89.3803 22.9323 87.3387 23.8073C86.0314 22.0573 85.1564 19.8646 85.5939 18.1094C86.0314 16.5052 87.7762 13.5834 90.1043 12.1198ZM89.6668 9.34377C86.1772 11.3906 83.8491 14.3125 82.9741 17.3802C82.8282 17.9636 82.6824 18.4011 82.6824 18.9896C81.8126 18.2552 80.9376 17.5261 79.7709 16.7969C79.1928 16.3594 78.3178 16.6511 77.8803 17.2344C75.5522 20.8854 74.823 24.6875 75.698 27.9011C75.4064 28.0469 75.1147 28.1927 74.823 28.4844C72.6407 32.2813 72.0574 36.2292 73.2241 39.5886C73.3699 39.8802 73.5157 40.3177 73.6616 40.6094C73.0782 40.4636 72.3491 40.7552 72.0574 41.3386C70.4584 44.849 70.4584 49.0834 73.0782 52.5886C73.5157 53.1771 74.3907 53.3229 74.9689 52.8802C75.5522 52.4427 75.698 51.5677 75.2605 50.9844C73.6616 48.9375 73.5157 46.0156 74.0991 43.8229C77.0053 45.724 79.6251 48.7917 80.5001 51.2761C80.7918 52.4427 82.3907 52.5886 82.9741 51.5677C84.573 48.9375 87.047 47.1823 90.6876 46.4531C90.6876 48.2084 90.3959 50.2552 89.8126 51.5677C89.5209 52.2969 89.8126 53.0313 90.5418 53.3229C91.2709 53.6146 91.9949 53.3229 92.4324 52.5886C93.4532 50.4011 93.7449 47.625 93.3074 44.7031C93.3074 44.2604 92.8699 43.8229 92.4324 43.6771C94.7605 41.3386 95.7814 37.6875 95.6355 33.599C95.6355 33.3073 95.4897 32.8646 95.198 32.7188C97.2345 30.5313 98.4012 27.1667 98.4012 23.3698C98.4012 22.6406 97.8178 22.0573 97.0887 21.9115C95.7814 21.7656 94.4741 21.9115 93.3074 22.0573C93.5991 21.3229 93.8907 20.7396 94.0366 19.8646C94.6147 16.6511 94.0366 12.849 91.5626 9.4896C90.8334 8.90627 90.2501 9.0521 89.6668 9.34377Z" fill="#FFBC41"/>
<mask id="mask0_510_1896" style="mask-type:luminance" maskUnits="userSpaceOnUse" x="18" y="58" width="48" height="45">
<path d="M18.6667 58.6667H65.3334V102.568H18.6667V58.6667Z" fill="white"/>
</mask>
<g mask="url(#mask0_510_1896)">
<path d="M23.1615 80.6406H61.4375C60.7083 91.0156 52.5573 99.0521 42.224 99.0521C32.0365 99.0521 23.8906 90.8698 23.1615 80.6406ZM42.224 62.6719C43.6823 62.6719 45.1354 63.5469 45.7188 64.7188C46.0104 65.4479 46.8802 65.7396 47.6094 65.4479C48.0469 65.3021 48.3385 65.3021 48.776 65.3021C50.5208 65.3021 51.8333 66.6146 51.8333 68.0781C51.8333 69.2448 52.9948 69.974 54.0156 69.3906C54.4479 69.2448 54.8854 69.099 55.3229 69.099C56.7812 69.099 57.9427 70.125 57.9427 71.4375C57.9427 71.7292 57.9427 71.875 57.7969 72.1667C57.5052 73.0469 58.2344 74.0677 59.1094 74.2136C60.5625 74.3594 61.5833 75.3802 61.5833 76.5521V77.5729H22.8698V76.5521C22.8698 75.3802 23.8906 74.2136 25.3438 74.2136C26.3646 74.2136 26.9427 73.1927 26.6562 72.1667C26.6562 71.875 26.5104 71.7292 26.5104 71.4375C26.5104 70.125 27.6719 69.099 29.1302 69.099C29.5625 69.099 30 69.2448 30.4375 69.3906C31.4583 69.9792 32.6198 69.2448 32.6198 68.0781C32.6198 66.6146 33.9323 65.3021 35.6771 65.3021C36.1146 65.3021 36.4063 65.3021 36.8385 65.4479C37.5677 65.7396 38.2969 65.4479 38.7344 64.7188C39.4583 63.5469 40.7708 62.6719 42.224 62.6719ZM42.224 59.6042C39.4583 59.6042 37.7135 60.9167 36.6979 62.2344C33.4948 61.5052 30.7292 63.8386 30 66.0313C29.5625 65.8854 29.5625 66.0313 29.1302 66.0313C26.0729 66.0313 23.4531 68.3698 23.4531 71.4375C20.9792 72.3125 19.8125 74.3594 19.8125 76.4063V79.1823C19.9583 91.7448 30 101.974 42.224 101.974C54.5938 101.974 64.6354 91.599 64.6354 79.0365V78.8906V76.4063C64.6354 74.3594 63.3281 72.1667 61 71.4375C61 68.3698 58.3802 66.0313 55.3229 66.0313C54.8854 66.0313 54.8854 66.0313 54.4479 66.0313C53.724 63.8386 50.8125 61.5052 47.7552 62.2344C46.7396 60.9167 44.9896 59.6042 42.224 59.6042Z" fill="#FFBC41"/>
</g>
<path fill-rule="evenodd" clip-rule="evenodd" d="M85.0105 72.4584C85.0105 73.6302 84.1407 74.5052 83.1199 74.5052C82.099 74.5052 81.2292 73.6302 81.2292 72.4584C81.2292 71.2917 82.099 70.4167 83.1199 70.4167C84.1407 70.4167 85.0105 71.2917 85.0105 72.4584Z" fill="#FFBC41"/>
<path d="M67.5469 42.3646C56.0521 43.9687 43.2448 44.4062 31.8907 42.6562C31.0209 42.5104 30.2917 43.0937 30.1459 43.9687C30 44.8489 30.5834 45.5781 31.4584 45.7239C43.2448 47.4791 56.198 47.0364 67.9844 45.4323C68.8594 45.2864 69.4375 44.5573 69.2969 43.6771C69.1511 42.8021 68.4219 42.2187 67.5469 42.3646Z" fill="#FFBC41"/>
<path d="M18.5052 29.7969C17.0469 30.9688 16.1771 32.5729 15.7396 34.3281C15.3021 36.0833 15.4479 38.125 16.6146 39.8802C16.901 40.3177 17.1927 40.7552 17.6302 41.1927C15.4479 46.4531 13.849 48.5 11.6667 54.0521C7.44271 64.7188 4.96875 75.526 9.47917 86.3385C10.2083 87.9479 10.0625 89.6979 9.77083 91.1615C9.625 91.8906 9.47917 92.7708 9.47917 93.7917C9.47917 94.8125 9.91667 95.8385 10.6458 96.7135C12.099 98.6146 14.2865 99.0521 16.4687 98.9063C18.5052 98.7604 20.6875 98.3177 23.0156 98.3177C23.8906 98.3177 24.4688 97.5885 24.4688 96.7135C24.4688 95.8385 23.7448 95.25 22.8698 95.25C20.25 95.25 17.9219 95.8385 16.3229 95.8385C12.974 95.8385 12.3906 94.375 12.8281 91.599C13.1198 89.9948 13.4115 87.9479 12.2448 85.1719C8.17187 74.9427 11.2292 63.401 14.4271 55.2188C16.4687 50.1042 18.0677 48.0625 20.1042 43.0938C20.8333 43.3854 21.4167 43.6771 22.2865 43.9688C23.4531 44.2604 24.6146 44.5573 25.7812 44.849C26.6562 44.9948 27.3802 44.5573 27.526 43.6771C27.6719 42.8021 27.2344 42.0729 26.3646 41.9271C25.1979 41.6354 24.1823 41.3385 23.0156 41.0469C20.8333 40.4635 19.6667 39.4427 19.0885 38.4167C18.5052 37.3958 18.3594 36.2292 18.651 35.2031C18.9427 34.0365 19.5208 33.0104 20.3958 32.4271C21.2708 31.8438 22.1406 31.5521 23.0156 31.6979C32.7656 34.0365 41.2083 34.3281 48.776 34.3281C55.3229 34.3281 62.4531 34.0365 70.6042 32.5729C71.4792 32.4271 71.9167 31.5521 71.7708 30.8229C71.625 29.9427 70.75 29.5052 70.0208 29.651C62.1615 31.1146 55.1771 31.4063 48.776 31.4063C41.3542 31.4063 33.2031 31.1146 23.7448 28.776C21.9948 28.1927 19.8125 28.776 18.5052 29.7969Z" fill="#FFBC41"/>
<mask id="mask1_510_1896" style="mask-type:luminance" maskUnits="userSpaceOnUse" x="56" y="53" width="49" height="47">
<path d="M56 53.3333H104.37V100H56V53.3333Z" fill="white"/>
</mask>
<g mask="url(#mask1_510_1896)">
<path d="M85.1562 57.1198C89.6666 57.1198 93.8906 58.2864 96.6562 60.0416C99.5624 61.7969 101.021 64.1302 101.021 66.4687C101.021 68.3698 99.9999 70.4166 97.8176 72.0208C97.3801 72.3125 97.2343 72.75 97.2343 73.1927V93.2083C97.2343 94.8125 96.2187 95.6927 95.3437 95.6927H74.8229C73.9531 95.6927 72.9322 94.6666 72.9322 93.2083V73.3385C72.9322 72.901 72.6406 72.4583 72.3489 72.1666C70.1666 70.4166 69.151 68.5156 69.151 66.6146C69.151 64.276 70.7499 61.9427 73.5156 60.1875C76.5729 58.2864 80.6458 57.1198 85.1562 57.1198ZM73.8072 54.0521C66.5312 54.0521 60.2708 56.5364 56.9218 60.625C56.3437 61.2083 56.4895 62.2344 57.2135 62.8177C57.7968 63.401 58.8177 63.2552 59.3958 62.526C61.7291 59.6041 66.8229 57.2656 72.7864 56.9739C72.6406 57.1198 72.3489 57.2656 72.2031 57.4114C68.7135 59.6041 66.3854 62.8177 66.3854 66.4687C66.3854 69.0989 68.1302 72.0208 70.1666 74.0677V93.3541C70.1666 94.2291 70.3124 95.1041 70.7499 95.8385H62.3072C61.4374 95.8385 60.8541 96.5677 60.8541 97.2969C60.8541 98.1719 61.5833 98.7604 62.3072 98.7604H95.7812C98.5468 98.7604 100.583 96.1302 100.583 93.2083V74.0677C102.62 72.0208 104.37 69.0989 104.37 66.4687C104.37 62.8177 102.036 59.6041 98.5468 57.4114C95.052 55.2187 90.3958 54.0521 85.302 54.0521H73.8072Z" fill="#FFBC41"/>
</g>
<path fill-rule="evenodd" clip-rule="evenodd" d="M93.0157 67.3489C93.0157 68.5156 92.1407 69.3906 91.1251 69.3906C90.1042 69.3906 89.0886 68.3698 89.0886 67.3489C89.0886 66.1771 89.9584 65.3021 90.9792 65.3021C91.9949 65.3021 93.0157 66.1771 93.0157 67.3489Z" fill="#FFBC41"/>
<path fill-rule="evenodd" clip-rule="evenodd" d="M93.7447 78.4479C93.7447 79.6198 92.8697 80.4948 91.8541 80.4948C90.8333 80.4948 89.9583 79.6198 89.9583 78.4479C89.9583 77.2813 90.8333 76.4062 91.8541 76.4062C92.8697 76.5521 93.7447 77.4271 93.7447 78.4479Z" fill="#FFBC41"/>
<mask id="mask2_510_1896" style="mask-type:luminance" maskUnits="userSpaceOnUse" x="26" y="7" width="45" height="21">
<path d="M26.6667 7.14581H70.6667V28H26.6667V7.14581Z" fill="white"/>
</mask>
<g mask="url(#mask2_510_1896)">
<path d="M40.3335 12.2656L27.8179 24.6875C27.2345 25.2708 27.2345 26.2916 27.8179 26.875C28.4012 27.4635 29.4168 27.4635 30.0002 26.875L42.5158 14.4583C44.12 12.8489 46.8804 10.8073 48.922 10.8073C50.9585 10.8073 53.7241 12.8489 55.3231 14.4583L67.8387 26.875C68.422 27.4635 69.4377 27.4635 70.021 26.875C70.6043 26.2916 70.6043 25.2708 70.021 24.6875L57.5054 12.2656C55.6147 10.5156 52.7033 7.73956 48.922 7.73956C45.1356 7.73956 42.0783 10.5156 40.3335 12.2656Z" fill="#FFBC41"/>
</g>
<path fill-rule="evenodd" clip-rule="evenodd" d="M49.9375 73.0469C49.9375 74.2135 49.0677 75.0885 48.0469 75.0885C47.026 75.0885 46.1562 74.2135 46.1562 73.0469C46.1562 71.875 47.026 71 48.0469 71C49.0677 71 49.9375 71.875 49.9375 73.0469Z" fill="#FFBC41"/>
<path fill-rule="evenodd" clip-rule="evenodd" d="M39.3177 69.6823C39.3177 70.8542 38.4427 71.7292 37.4219 71.7292C36.4063 71.7292 35.5312 70.8542 35.5312 69.6823C35.5312 68.5156 36.4063 67.6406 37.4219 67.6406C38.4427 67.6406 39.3177 68.6615 39.3177 69.6823Z" fill="#FFBC41"/>
</svg>
