<svg width="111" height="110" viewBox="0 0 111 110" fill="none" xmlns="http://www.w3.org/2000/svg">
<mask id="mask0_510_1870" style="mask-type:luminance" maskUnits="userSpaceOnUse" x="18" y="4" width="75" height="101">
<path d="M18.4531 4.96875H92.0104V104.37H18.4531V4.96875Z" fill="white"/>
</mask>
<g mask="url(#mask0_510_1870)">
<path d="M91.9896 67.6615C91.9896 65.0469 90.2448 62.8333 87.8594 62.1146C89.0885 60.6771 89.8333 58.8073 89.8333 56.7812C89.8333 52.4531 86.4635 48.8958 82.2031 48.5833C83.4115 46.3854 83.0833 43.5677 81.2188 41.7083C80.125 40.6146 78.6667 40.0104 77.1146 40.0104C76.1406 40.0104 75.2083 40.25 74.375 40.6979C74.2188 38.7448 73.3906 36.9323 71.9896 35.5365C70.4323 33.9844 68.3646 33.125 66.1667 33.125C64.6615 33.125 63.2188 33.526 61.9583 34.276V20.25H67.599C68.1719 20.25 68.6823 19.9115 68.901 19.3854C69.1198 18.8594 69.0052 18.2552 68.6042 17.8542L56.224 5.38542C55.9583 5.11979 55.599 4.96875 55.2188 4.96875C54.8438 4.96875 54.4844 5.11979 54.2188 5.38542L41.8385 17.8542C41.4375 18.2552 41.3229 18.8594 41.5417 19.3854C41.7604 19.9115 42.2708 20.25 42.8438 20.25H48.4792V34.2396C47.2552 33.5208 45.8333 33.1094 44.3229 33.1094C39.9844 33.1094 36.4219 36.474 36.1094 40.724C33.9063 39.5208 31.0833 39.849 29.224 41.7083C28.125 42.8021 27.5208 44.2552 27.5208 45.8021C27.5208 46.776 27.7604 47.7083 28.2083 48.5417C26.2552 48.6927 24.4375 49.526 23.0417 50.9219C21.4844 52.474 20.625 54.5417 20.625 56.7344C20.625 58.7292 21.3333 60.6094 22.625 62.1042C20.2187 62.8073 18.4531 65.0313 18.4531 67.6615C18.4531 70.276 20.1979 72.4896 22.5833 73.2083C21.349 74.651 20.6094 76.5156 20.6094 78.5417C20.6094 82.8698 23.974 86.4271 28.2344 86.7396C27.7708 87.5833 27.5208 88.5312 27.5208 89.5208C27.5208 91.0677 28.125 92.5208 29.224 93.6146C30.3177 94.7135 31.776 95.3125 33.3229 95.3125C34.3021 95.3125 35.2396 95.0729 36.0729 94.625C36.2188 96.5104 37.0156 98.349 38.4531 99.7865C40.0573 101.391 42.1667 102.193 44.276 102.193C46.1979 102.193 48.1146 101.526 49.651 100.203C50.3594 102.604 52.5885 104.37 55.2188 104.37C57.8385 104.37 60.0573 102.625 60.776 100.245C62.2188 101.474 64.0885 102.214 66.1198 102.214C70.4531 102.214 74.0156 98.8542 74.3281 94.6042C75.1771 95.0677 76.125 95.3125 77.1146 95.3125C78.6667 95.3125 80.125 94.7083 81.2188 93.6146C83.0729 91.7656 83.4062 88.9688 82.224 86.776C84.1146 86.6302 85.9635 85.8385 87.401 84.401C88.9583 82.849 89.8125 80.7812 89.8125 78.5885C89.8125 76.5938 89.1094 74.7135 87.8177 73.2188C90.224 72.5156 91.9896 70.2917 91.9896 67.6615ZM65.3906 85.8073C65.2083 83.5885 64.3021 81.5208 62.8646 79.8906C63.0938 78.7656 63.651 77.7188 64.474 76.901C65.2917 76.0781 66.3438 75.5208 67.4688 75.2917C69.099 76.724 71.1615 77.625 73.3802 77.8125C73.2188 79.4792 73.5677 81.1458 74.3854 82.599C74.1198 83.6042 73.5938 84.5156 72.849 85.2604C72.0885 86.0208 71.151 86.5521 70.1198 86.8125C68.9323 86.151 67.5729 85.7708 66.1198 85.7708C65.875 85.7708 65.6302 85.7812 65.3906 85.8073ZM55.2188 94.0052C51.151 94.0052 47.8385 90.7031 47.8385 86.6354C47.8385 83.9115 49.3594 81.4115 51.7448 80.1354C52.8542 80.4427 54.0156 80.6094 55.2188 80.6094C56.4271 80.6094 57.5885 80.4427 58.6979 80.1354C61.0833 81.4115 62.6042 83.9115 62.6042 86.6354C62.6042 90.7031 59.2917 94.0052 55.2188 94.0052ZM45.0521 85.7917C43.3854 85.625 41.7188 85.974 40.2604 86.7917C39.2552 86.526 38.3385 86.0052 37.5938 85.2604C36.8281 84.5 36.3021 83.5625 36.0417 82.5365C36.7031 81.3542 37.0781 79.9896 37.0781 78.5417C37.0781 78.2969 37.0677 78.0573 37.0469 77.8125C39.2656 77.6302 41.3385 76.7292 42.9688 75.2917C44.099 75.5208 45.1458 76.0781 45.9688 76.901C46.7917 77.7188 47.349 78.7656 47.5781 79.8906C46.1458 81.5156 45.2396 83.5781 45.0521 85.7917ZM28.8333 67.6615C28.8333 63.599 32.1406 60.2917 36.2135 60.2917C38.9479 60.2917 41.4479 61.8073 42.724 64.1927C42.4167 65.2969 42.25 66.4583 42.25 67.6615C42.25 68.8646 42.4167 70.026 42.724 71.1302C41.4479 73.5156 38.9479 75.0312 36.2135 75.0312C32.1406 75.0312 28.8333 71.724 28.8333 67.6615ZM45.0521 49.5208C45.2344 51.7344 46.1406 53.8073 47.5781 55.4323C47.349 56.5573 46.7917 57.6042 45.9688 58.4271C45.1458 59.2448 44.099 59.8021 42.9688 60.0312C41.3438 58.599 39.276 57.6979 37.0625 57.5104C37.224 55.8438 36.875 54.1823 36.0573 52.7292C36.3229 51.724 36.849 50.8073 37.5938 50.0625C38.3542 49.3021 39.2917 48.776 40.3229 48.5156C41.5052 49.1719 42.8698 49.5521 44.3229 49.5521C44.5677 49.5521 44.8073 49.5417 45.0521 49.5208ZM52.2396 36.75C52.2396 35.1094 53.5781 33.776 55.2188 33.776C56.8646 33.776 58.2031 35.1094 58.2031 36.75C58.2031 37.4896 57.9167 38.1979 57.4271 38.7448C56.7188 38.5833 55.9792 38.5 55.2188 38.5C54.4635 38.5 53.724 38.5833 53.0156 38.7448C52.526 38.1979 52.2396 37.4896 52.2396 36.75ZM55.2188 41.3177C59.2917 41.3177 62.6042 44.625 62.6042 48.6875C62.6042 51.4167 61.0833 53.9167 58.6979 55.1875C57.5885 54.8802 56.4271 54.7135 55.2188 54.7135C54.0156 54.7135 52.8542 54.8802 51.7448 55.1875C49.3594 53.9167 47.8385 51.4167 47.8385 48.6875C47.8385 44.625 51.151 41.3177 55.2188 41.3177ZM65.3854 49.5365C65.651 49.5625 65.9167 49.5781 66.1823 49.5781C67.5833 49.5781 68.9531 49.2188 70.1771 48.5312C71.1875 48.7969 72.1042 49.3177 72.849 50.0625C73.6094 50.8229 74.1406 51.7604 74.401 52.7865C73.7396 53.9688 73.3594 55.3333 73.3594 56.7812C73.3594 57.026 73.375 57.2708 73.3958 57.5104C71.1719 57.6927 69.099 58.599 67.4688 60.0312C66.3438 59.8021 65.2969 59.2448 64.474 58.4271C63.651 57.6042 63.0938 56.5573 62.8646 55.4323C64.2969 53.8073 65.2031 51.75 65.3854 49.5365ZM45.0729 67.6615C45.0729 62.0729 49.625 57.5312 55.2188 57.5312C60.8177 57.5312 65.3698 62.0729 65.3698 67.6615C65.3698 73.25 60.8177 77.7917 55.2188 77.7917C49.625 77.7969 45.0729 73.25 45.0729 67.6615ZM74.2292 75.0312C71.4948 75.0312 68.9896 73.5156 67.7135 71.1302C68.026 70.026 68.1927 68.8646 68.1927 67.6615C68.1927 66.4583 68.026 65.2969 67.7135 64.1927C68.9896 61.8073 71.4948 60.2917 74.2292 60.2917C78.2969 60.2917 81.6094 63.599 81.6094 67.6615C81.6094 71.724 78.2969 75.0312 74.2292 75.0312ZM87.0104 56.7812C87.0104 59.3542 85.1927 61.5365 82.7448 62.0625C81.276 59.8438 78.9583 58.224 76.2604 57.6771C76.2083 57.3854 76.1823 57.0833 76.1823 56.7812C76.1823 53.8021 78.6094 51.375 81.599 51.375C84.5833 51.375 87.0104 53.8021 87.0104 56.7812ZM77.1146 42.8281C77.9115 42.8281 78.6615 43.1354 79.224 43.6979C80.3854 44.8594 80.3854 46.75 79.224 47.9062C78.6615 48.4688 77.9115 48.7812 77.1146 48.7812C76.3177 48.7812 75.5729 48.4688 75.0104 47.9062C74.4479 47.3438 74.1354 46.599 74.1354 45.8021C74.1354 45.0104 74.4479 44.2604 75.0104 43.6979C75.5729 43.1354 76.3177 42.8281 77.1146 42.8281ZM66.1667 35.9427C67.6094 35.9427 68.9688 36.5052 69.9948 37.526C72.1042 39.6354 72.1042 43.0625 69.9948 45.1719C68.724 46.4375 66.9531 46.9792 65.224 46.6719C64.6823 43.9896 63.0833 41.6823 60.875 40.2135C61.0938 39.2031 61.5938 38.2656 62.3385 37.526C63.3594 36.5052 64.7188 35.9427 66.1667 35.9427ZM46.2292 17.4375L55.2188 8.38021L64.2135 17.4323H60.5469C59.7708 17.4323 59.1406 18.0677 59.1406 18.8438V32.4792C58.1042 31.5365 56.7292 30.9583 55.2188 30.9583C53.7135 30.9583 52.3385 31.5365 51.3021 32.4792V18.8438C51.3021 18.0677 50.6719 17.4375 49.8906 17.4375H46.2292ZM44.3229 35.9271C46.901 35.9271 49.0833 37.7396 49.6146 40.1823C47.3854 41.651 45.7656 43.9635 45.2188 46.6615C44.9271 46.7083 44.625 46.7344 44.3229 46.7344C41.3333 46.7344 38.9062 44.3125 38.9062 41.3281C38.9062 38.349 41.3333 35.9271 44.3229 35.9271ZM31.2188 43.6979C32.3802 42.5417 34.2708 42.5365 35.4323 43.6979C35.9948 44.2604 36.3073 45.0104 36.3073 45.8021C36.3073 46.599 35.9948 47.3438 35.4323 47.9062C34.2708 49.0677 32.3802 49.0677 31.2188 47.9062C30.6563 47.3438 30.3438 46.599 30.3438 45.8021C30.3438 45.0104 30.6563 44.2604 31.2188 43.6979ZM25.0365 52.9167C26.0573 51.8958 27.4167 51.3333 28.8646 51.3333C30.3073 51.3333 31.6667 51.8958 32.6927 52.9167C33.9635 54.1823 34.5052 55.9479 34.1927 57.6771C31.5052 58.2188 29.1979 59.8177 27.724 62.0156C26.7135 61.7969 25.776 61.3021 25.0365 60.5573C24.0104 59.5365 23.4479 58.1823 23.4479 56.7344C23.4479 55.2917 24.0104 53.9375 25.0365 52.9167ZM21.276 67.6615C21.276 66.0208 22.6146 64.6875 24.2552 64.6875C25 64.6875 25.7083 64.9688 26.25 65.4583C26.0937 66.1667 26.0104 66.9063 26.0104 67.6615C26.0104 68.4167 26.0937 69.1562 26.25 69.8646C25.7083 70.3542 25 70.6354 24.2552 70.6354C22.6146 70.6354 21.276 69.3021 21.276 67.6615ZM23.4323 78.5417C23.4323 75.9688 25.2448 73.7865 27.6927 73.2604C29.1667 75.4844 31.4792 77.099 34.1823 77.6458C34.2344 77.9427 34.2604 78.2396 34.2604 78.5417C34.2604 81.5208 31.8281 83.9479 28.8438 83.9479C25.8594 83.9479 23.4323 81.5208 23.4323 78.5417ZM33.3229 92.4948C32.5312 92.4948 31.7813 92.1875 31.2188 91.625C30.6563 91.0625 30.3438 90.3177 30.3438 89.5208C30.3438 88.724 30.6563 87.9792 31.2188 87.4167C31.7813 86.8542 32.5312 86.5469 33.3229 86.5469C34.1198 86.5469 34.8698 86.8542 35.4323 87.4167C35.9948 87.9792 36.3073 88.724 36.3073 89.5208C36.3073 90.3177 35.9948 91.0625 35.4323 91.625C34.8698 92.1875 34.1198 92.4948 33.3229 92.4948ZM40.4479 97.7969C38.3385 95.6875 38.3385 92.2604 40.4479 90.151C41.7188 88.8854 43.4896 88.3438 45.2188 88.651C45.7604 91.3333 47.3594 93.6406 49.5677 95.1094C49.349 96.125 48.849 97.0573 48.1042 97.7969C45.9948 99.9062 42.5625 99.9062 40.4479 97.7969ZM55.2188 101.552C53.5781 101.552 52.2396 100.214 52.2396 98.5729C52.2396 97.8333 52.526 97.125 53.0156 96.5833C53.724 96.7396 54.4635 96.8229 55.2188 96.8229C55.9792 96.8229 56.7188 96.7396 57.4271 96.5833C57.9167 97.125 58.2031 97.8333 58.2031 98.5729C58.2031 100.214 56.8646 101.552 55.2188 101.552ZM66.1198 99.3958C63.5417 99.3958 61.3594 97.5833 60.8281 95.1406C63.0521 93.6719 64.6719 91.3594 65.2188 88.6615C65.5156 88.6146 65.8177 88.5885 66.1198 88.5885C69.1042 88.5885 71.5312 91.0156 71.5312 93.9948C71.5312 96.974 69.1042 99.3958 66.1198 99.3958ZM79.224 91.625C78.6615 92.1875 77.9115 92.4948 77.1146 92.4948C76.3177 92.4948 75.5729 92.1875 75.0104 91.625C74.4479 91.0625 74.1354 90.3177 74.1354 89.5208C74.1354 88.724 74.4479 87.9792 75.0104 87.4167C75.5729 86.8542 76.3177 86.5469 77.1146 86.5469C77.9115 86.5469 78.6615 86.8542 79.224 87.4167C80.3854 88.5781 80.3854 90.4635 79.224 91.625ZM85.4062 82.4115C83.2969 84.5156 79.8594 84.5156 77.75 82.4115C76.4792 81.1406 75.9375 79.375 76.2448 77.6458C78.9323 77.1094 81.2448 75.5104 82.7188 73.3073C83.7292 73.526 84.6667 74.026 85.4062 74.7656C86.4271 75.7865 86.9948 77.1458 86.9948 78.5885C86.9948 80.0312 86.4271 81.3906 85.4062 82.4115ZM86.1875 70.6354C85.4427 70.6354 84.7344 70.3542 84.1875 69.8646C84.349 69.1562 84.4323 68.4167 84.4323 67.6615C84.4323 66.9063 84.349 66.1667 84.1875 65.4583C84.7344 64.9688 85.4427 64.6875 86.1875 64.6875C87.8281 64.6875 89.1667 66.0208 89.1667 67.6615C89.1667 69.3021 87.8281 70.6354 86.1875 70.6354Z" fill="#FFBC41"/>
</g>
</svg>
