<svg width="111" height="110" viewBox="0 0 111 110" fill="none" xmlns="http://www.w3.org/2000/svg">
<path d="M39.7136 60.5313C39.1615 60.2135 38.6094 60.2135 38.0573 60.5313C35.2657 62.1094 32.9375 64.1979 31.0625 66.7969C30.724 67.3333 30.4688 67.9063 30.3021 68.5208C30.1303 69.1302 30.0573 69.7552 30.0782 70.3906C30.099 71.026 30.2136 71.6458 30.4219 72.25C30.6303 72.849 30.9219 73.4063 31.2969 73.9167C31.5625 74.2396 31.8959 74.4323 32.3073 74.5C32.5313 74.5156 32.7605 74.5156 32.9844 74.5C34.1511 74.5104 35.2344 74.224 36.2448 73.6406C37.25 73.0521 38.0365 72.2552 38.6042 71.2344C39.9219 68.3125 40.5678 65.25 40.5417 62.0417C40.5521 61.7344 40.4844 61.4427 40.3386 61.1719C40.1875 60.901 39.9792 60.6875 39.7136 60.5313ZM35.7344 69.5781C35.2813 70.4427 34.5782 70.9948 33.6303 71.2344C33.3438 70.2656 33.4688 69.3542 34.0157 68.5C34.8021 67.2604 35.7813 66.1875 36.948 65.2865C36.8021 66.7917 36.3959 68.2188 35.7344 69.5781Z" fill="#FFBC41"/>
<path d="M28.6614 66.8125C26.7917 64.2135 24.4583 62.125 21.6719 60.5521C21.5469 60.4792 21.4114 60.4219 21.2708 60.3854C21.1354 60.349 20.9896 60.3281 20.8437 60.3281C20.7031 60.3281 20.5573 60.3438 20.4167 60.3854C20.276 60.4219 20.1458 60.474 20.0208 60.5469C19.8958 60.6198 19.7812 60.7083 19.6771 60.8073C19.5729 60.9115 19.4844 61.026 19.4114 61.151C19.3385 61.276 19.2812 61.4063 19.2448 61.5469C19.2083 61.6875 19.1875 61.8281 19.1875 61.974C19.1667 65.2083 19.8281 68.2969 21.1771 71.2344C21.7344 72.2604 22.5156 73.0729 23.526 73.6667C24.5312 74.2604 25.6198 74.5573 26.7917 74.5469C27.0156 74.5625 27.2448 74.5625 27.4687 74.5469C27.8802 74.4792 28.2187 74.2865 28.4792 73.9688C28.8594 73.4531 29.151 72.8906 29.3542 72.2865C29.5625 71.6823 29.6719 71.0573 29.6875 70.4167C29.7031 69.7813 29.625 69.151 29.4479 68.5365C29.276 67.9219 29.0104 67.349 28.6614 66.8125ZM26.2292 71.2344C25.2552 71.0104 24.5312 70.4583 24.0573 69.5781C23.3906 68.2448 22.9792 66.8333 22.8125 65.3542C24.0156 66.2344 25.026 67.2917 25.8489 68.5365C26.3802 69.375 26.5052 70.276 26.2292 71.2344Z" fill="#FFBC41"/>
<path d="M39.7136 48.4583C39.1615 48.1354 38.6094 48.1354 38.0573 48.4583C35.2709 50.0156 32.9428 52.0885 31.0625 54.6666C30.724 55.2031 30.4688 55.7812 30.3021 56.3906C30.1303 57.0052 30.0573 57.6302 30.0782 58.2656C30.099 58.901 30.2136 59.5208 30.4219 60.1198C30.6303 60.7239 30.9219 61.2812 31.2969 61.7916C31.5625 62.1094 31.8959 62.3073 32.3073 62.3698C32.5313 62.3906 32.7605 62.3906 32.9844 62.3698C34.1563 62.3802 35.2448 62.0885 36.25 61.4896C37.2605 60.8958 38.0417 60.0885 38.6042 59.0573C39.9219 56.1354 40.5678 53.0729 40.5417 49.8646C40.5313 49.2396 40.2553 48.7708 39.7136 48.4583ZM35.7344 57.4166C35.2605 58.2969 34.5417 58.8489 33.5678 59.0729C33.2657 58.1041 33.3855 57.1875 33.9323 56.3229C34.7553 55.1094 35.7605 54.0729 36.948 53.2083C36.7917 54.6823 36.3855 56.0885 35.7344 57.4166Z" fill="#FFBC41"/>
<path d="M26.7917 62.474C27.0157 62.4896 27.2448 62.4896 27.4688 62.474C27.8802 62.4063 28.2188 62.2136 28.4792 61.8906C28.8646 61.3698 29.1615 60.8073 29.3698 60.1927C29.5834 59.5834 29.6927 58.9531 29.7084 58.3073C29.7292 57.6615 29.6459 57.0313 29.4688 56.4063C29.2865 55.7865 29.0209 55.2084 28.6615 54.6667C26.7917 52.0677 24.4584 49.9844 21.6719 48.4063C21.5469 48.3334 21.4115 48.2813 21.2709 48.2396C21.1354 48.2031 20.9896 48.1823 20.8438 48.1823C20.7031 48.1823 20.5573 48.2031 20.4167 48.2396C20.2761 48.2761 20.1459 48.3334 20.0209 48.4063C19.8959 48.474 19.7813 48.5625 19.6771 48.6667C19.5729 48.7656 19.4844 48.8802 19.4115 49.0052C19.3386 49.1302 19.2813 49.2656 19.2448 49.4063C19.2084 49.5417 19.1875 49.6875 19.1875 49.8334C19.1615 53.0365 19.8073 56.1042 21.125 59.0261C21.3907 59.5469 21.724 60.0209 22.125 60.4479C22.5209 60.875 22.974 61.2448 23.474 61.5469C23.974 61.8542 24.5052 62.0834 25.0677 62.2396C25.6302 62.3959 26.2032 62.474 26.7917 62.474ZM25.849 56.3229C26.3906 57.1771 26.5157 58.0886 26.2292 59.0573C25.2552 58.8334 24.5313 58.2813 24.0573 57.4011C23.3906 56.0677 22.9792 54.6615 22.8125 53.1771C24.0104 54.0469 25.0209 55.099 25.849 56.3229Z" fill="#FFBC41"/>
<path d="M39.7135 36.4479C39.1614 36.125 38.6093 36.125 38.0572 36.4479C35.2655 38.0209 32.9374 40.1094 31.0624 42.7084C30.7395 43.2396 30.4947 43.8021 30.3385 44.4063C30.177 45.0052 30.1093 45.6198 30.1301 46.2396C30.1562 46.8646 30.2656 47.4688 30.4687 48.0573C30.6666 48.6459 30.9478 49.1927 31.3124 49.6979C31.5781 50.0209 31.9166 50.2136 32.3228 50.2761C32.552 50.2969 32.776 50.2969 33.0051 50.2761C34.1718 50.2865 35.2603 49.9948 36.2708 49.4011C37.276 48.8021 38.0624 47.9948 38.6197 46.9636C39.9374 44.0417 40.5833 40.9792 40.5572 37.7709C40.5155 37.1771 40.2343 36.7344 39.7135 36.4479ZM35.7343 45.4063C35.2603 46.2865 34.5416 46.8386 33.5676 47.0625C33.276 46.0938 33.401 45.1823 33.9478 44.3334C34.7551 43.0886 35.7551 42.0209 36.9478 41.1354C36.7916 42.6094 36.3906 44.0104 35.7343 45.3438V45.4063Z" fill="#FFBC41"/>
<path d="M29.3073 41.7813C29.7032 41.9271 30.0938 41.9271 30.4844 41.7813C31.0678 41.5261 31.599 41.1875 32.0782 40.7709C32.5573 40.3542 32.9636 39.875 33.2969 39.3386C33.6355 38.7969 33.8855 38.224 34.0469 37.6094C34.2084 36.9948 34.2709 36.3698 34.2448 35.7344C33.9271 32.5417 32.9584 29.5677 31.3282 26.8021C31.2553 26.6771 31.1667 26.5625 31.0678 26.4636C30.9636 26.3594 30.849 26.2709 30.724 26.1979C30.599 26.125 30.4636 26.0729 30.323 26.0365C30.1823 26 30.0417 25.9792 29.8959 25.9792C29.7501 25.9792 29.6094 26 29.4688 26.0365C29.3282 26.0729 29.198 26.125 29.0678 26.1979C28.9428 26.2709 28.8282 26.3594 28.7292 26.4636C28.6251 26.5625 28.5365 26.6771 28.4636 26.8021C26.8386 29.5677 25.8646 32.5417 25.5469 35.7344C25.5209 36.3698 25.5886 36.9948 25.7501 37.6094C25.9115 38.224 26.1615 38.7969 26.4948 39.3386C26.8282 39.875 27.2396 40.3542 27.7188 40.7709C28.198 41.1875 28.7292 41.5261 29.3073 41.7813ZM29.8907 31.474C30.4896 32.8386 30.8386 34.2656 30.9323 35.75C30.9792 36.7656 30.6303 37.6198 29.8907 38.3177C29.1459 37.6198 28.7969 36.7656 28.8438 35.75C28.9376 34.2656 29.2865 32.8386 29.8907 31.474Z" fill="#FFBC41"/>
<path d="M26.7917 50.3958C27.0157 50.4114 27.2448 50.4114 27.4688 50.3958C27.8802 50.3281 28.2188 50.1354 28.4792 49.8125C28.8594 49.3021 29.1511 48.7448 29.3646 48.1458C29.5729 47.5469 29.6875 46.9271 29.7084 46.2916C29.7344 45.6562 29.6615 45.0312 29.4948 44.4166C29.3229 43.8021 29.0729 43.2291 28.7292 42.6927C26.849 40.0937 24.5156 38.0156 21.724 36.4479C21.5938 36.375 21.4636 36.3177 21.3229 36.2812C21.1823 36.2448 21.0417 36.2239 20.8959 36.2239C20.75 36.2239 20.6094 36.2396 20.4688 36.2812C20.3281 36.3177 20.1927 36.3698 20.0677 36.4427C19.9427 36.5156 19.8281 36.6041 19.724 36.7031C19.625 36.8073 19.5365 36.9219 19.4636 37.0469C19.3907 37.1719 19.3334 37.3021 19.2969 37.4427C19.2552 37.5833 19.2396 37.7239 19.2344 37.8698C19.2084 41.0781 19.8542 44.1406 21.1771 47.0625C21.7292 48.0937 22.5156 48.9114 23.5209 49.5052C24.5313 50.1041 25.6198 50.401 26.7917 50.3958ZM25.849 44.2969C26.3906 45.151 26.5157 46.0625 26.2292 47.0312C25.2552 46.8073 24.5313 46.2552 24.0573 45.375C23.3906 44.0416 22.9792 42.6302 22.8125 41.151C24.0104 42.0208 25.0209 43.0677 25.849 44.2969Z" fill="#FFBC41"/>
<path d="M29.8906 73.7864C29.6667 73.7864 29.4583 73.8281 29.2552 73.9114C29.0521 73.9948 28.875 74.1146 28.7188 74.2708C28.5625 74.4271 28.4427 74.6041 28.3594 74.8073C28.276 75.0104 28.2344 75.2239 28.2344 75.4427V84.4896C28.2344 84.7083 28.276 84.9166 28.3594 85.1198C28.4427 85.3229 28.5625 85.5052 28.7188 85.6614C28.875 85.8125 29.0521 85.9323 29.2552 86.0208C29.4583 86.1041 29.6667 86.1458 29.8906 86.1458C30.1094 86.1458 30.3177 86.1041 30.5208 86.0208C30.724 85.9323 30.9063 85.8125 31.0625 85.6614C31.2135 85.5052 31.3333 85.3229 31.4167 85.1198C31.5052 84.9166 31.5469 84.7083 31.5469 84.4896V75.4427C31.5469 75.2239 31.5052 75.0104 31.4167 74.8073C31.3333 74.6041 31.2135 74.4271 31.0625 74.2708C30.9063 74.1146 30.724 73.9948 30.5208 73.9114C30.3177 73.8281 30.1094 73.7864 29.8906 73.7864Z" fill="#FFBC41"/>
<path d="M79.2708 66.8125C77.401 64.2135 75.0677 62.125 72.2812 60.5521C72.1562 60.4792 72.0208 60.4219 71.8854 60.3854C71.7448 60.349 71.599 60.3281 71.4583 60.3281C71.3125 60.3281 71.1667 60.3438 71.026 60.3854C70.8854 60.4219 70.7552 60.474 70.6302 60.5469C70.5052 60.6198 70.3906 60.7083 70.2865 60.8073C70.1823 60.9115 70.0937 61.026 70.0208 61.151C69.9479 61.276 69.8958 61.4063 69.8542 61.5469C69.8177 61.6875 69.7969 61.8281 69.7969 61.974C69.7604 65.2031 70.4062 68.2917 71.7344 71.2344C72.2917 72.2604 73.0781 73.0729 74.0833 73.6667C75.0937 74.2604 76.1823 74.5573 77.349 74.5469C77.5781 74.5625 77.8021 74.5625 78.0312 74.5469C78.4375 74.4792 78.776 74.2865 79.0417 73.9688C79.4219 73.4531 79.7135 72.8958 79.9219 72.2917C80.1354 71.6875 80.25 71.0677 80.2708 70.4271C80.2917 69.7865 80.2135 69.1615 80.0469 68.5417C79.875 67.9271 79.6198 67.349 79.2708 66.8125ZM76.7031 71.2344C75.7292 71.0104 75.0104 70.4583 74.5365 69.5781C73.8958 68.2187 73.5156 66.7865 73.3906 65.2865C74.5937 66.1667 75.6042 67.2292 76.4219 68.4688C76.9427 69.349 77.0365 70.2708 76.7031 71.2344Z" fill="#FFBC41"/>
<path d="M90.2552 60.5313C89.7031 60.2135 89.151 60.2135 88.5989 60.5313C85.8333 62.1198 83.526 64.2135 81.6771 66.8125C81.3333 67.349 81.0781 67.9219 80.9114 68.5365C80.7448 69.151 80.6718 69.776 80.6927 70.4115C80.7135 71.0469 80.8333 71.6667 81.0416 72.2656C81.25 72.8698 81.5468 73.4219 81.9218 73.9375C82.1875 74.2552 82.526 74.4479 82.9323 74.5156C83.1614 74.5313 83.3854 74.5313 83.6146 74.5156C84.7812 74.5208 85.8698 74.2292 86.8802 73.6354C87.8854 73.0417 88.6718 72.2292 89.2291 71.2031C90.5468 68.2813 91.1927 65.2135 91.1666 62.0052C91.1666 61.6979 91.0833 61.4063 90.9218 61.1406C90.7552 60.875 90.5364 60.6719 90.2552 60.5313ZM86.2812 69.5781C85.8073 70.4583 85.0833 71.0104 84.1093 71.2344C83.8177 70.2656 83.9479 69.3542 84.4896 68.5C85.3125 67.2604 86.3229 66.2031 87.5208 65.3229C87.3646 66.8125 86.9479 68.2344 86.2812 69.5781Z" fill="#FFBC41"/>
<path d="M77.3334 62.4739C77.5625 62.4896 77.7865 62.4896 78.0157 62.4739C78.4219 62.4062 78.7604 62.2135 79.0261 61.8906C79.4011 61.3802 79.6927 60.8229 79.9011 60.2187C80.1094 59.6198 80.2188 59 80.2396 58.3646C80.2604 57.7291 80.1875 57.1041 80.0209 56.4948C79.8542 55.8802 79.599 55.3021 79.2552 54.7656C77.3854 52.1666 75.0521 50.0833 72.2657 48.5052C72.1407 48.4323 72.0052 48.3802 71.8646 48.3385C71.7292 48.3021 71.5834 48.2864 71.4375 48.2864C71.2917 48.2812 71.1511 48.3021 71.0104 48.3385C70.8698 48.375 70.7396 48.4323 70.6146 48.5052C70.4844 48.5781 70.375 48.6614 70.2709 48.7656C70.1667 48.8646 70.0782 48.9791 70.0052 49.1041C69.9323 49.2291 69.875 49.3646 69.8386 49.5052C69.8021 49.6458 69.7813 49.7864 69.7813 49.9323C69.7657 53.1198 70.4167 56.1719 71.7344 59.0729C72.2813 60.1146 73.0573 60.9427 74.0625 61.5521C75.0677 62.1614 76.1563 62.4687 77.3334 62.4739ZM76.4063 56.3229C76.9427 57.2135 77.0417 58.1458 76.7032 59.125C75.7292 58.901 75.0104 58.3489 74.5365 57.4687C73.8959 56.1094 73.5157 54.6875 73.3907 53.1927C74.5834 54.0625 75.5834 55.1041 76.4063 56.3229Z" fill="#FFBC41"/>
<path d="M90.2552 48.4583C89.7031 48.1354 89.151 48.1354 88.5989 48.4583C85.8385 50.026 83.5312 52.0937 81.6771 54.6666C81.3333 55.2031 81.0781 55.7812 80.9114 56.3958C80.7448 57.0104 80.6718 57.6354 80.6927 58.2708C80.7135 58.9062 80.8333 59.5208 81.0416 60.125C81.25 60.7239 81.5468 61.2812 81.9218 61.7916C82.1875 62.1094 82.526 62.3073 82.9323 62.3698C83.1614 62.3906 83.3854 62.3906 83.6146 62.3698C84.7812 62.3802 85.8698 62.0885 86.8802 61.4896C87.8854 60.8958 88.6718 60.0885 89.2291 59.0573C90.5468 56.1354 91.1927 53.0729 91.1666 49.8646C91.1406 49.2187 90.8333 48.75 90.2552 48.4583ZM86.2812 57.4166C85.8073 58.2969 85.0833 58.8489 84.1093 59.0729C83.8125 58.0989 83.9427 57.1823 84.4896 56.3229C85.3125 55.0833 86.3229 54.026 87.5208 53.1458C87.3646 54.6458 86.9531 56.0677 86.2812 57.4166Z" fill="#FFBC41"/>
<path d="M77.3334 50.3958C77.5625 50.4114 77.7865 50.4114 78.0157 50.3958C78.4427 50.2969 78.7813 50.0625 79.0261 49.6979C79.4011 49.1875 79.6927 48.6302 79.9011 48.026C80.1094 47.4271 80.2188 46.8073 80.2396 46.1719C80.2604 45.5364 80.1875 44.9114 80.0209 44.3021C79.8542 43.6875 79.599 43.1094 79.2552 42.5729C77.375 40.026 75.0521 37.9844 72.2813 36.4479C72.1563 36.375 72.0209 36.3177 71.8854 36.2812C71.7448 36.2448 71.599 36.2239 71.4584 36.2239C71.3125 36.2239 71.1667 36.2396 71.0261 36.2812C70.8854 36.3177 70.7552 36.3698 70.6302 36.4427C70.5052 36.5156 70.3907 36.6041 70.2865 36.7031C70.1823 36.8073 70.0938 36.9219 70.0209 37.0469C69.9479 37.1719 69.8959 37.3021 69.8542 37.4427C69.8177 37.5833 69.7969 37.7239 69.7969 37.8698C69.7813 41.0521 70.4271 44.0989 71.7344 47C72.2813 48.0416 73.0573 48.8646 74.0625 49.4739C75.0677 50.0833 76.1563 50.3906 77.3334 50.3958ZM76.3907 44.2969C76.9167 45.1666 77.0209 46.0833 76.7032 47.0469C75.7292 46.8229 75.0104 46.2708 74.5365 45.3906C73.8959 44.0364 73.5157 42.6094 73.3907 41.1198C74.5834 42 75.5886 43.0573 76.4063 44.2969H76.3907Z" fill="#FFBC41"/>
<path d="M79.8543 41.7813C80.2449 41.9271 80.6355 41.9271 81.0261 41.7813C81.6095 41.5261 82.1407 41.1875 82.6199 40.7709C83.0991 40.3542 83.5053 39.875 83.8438 39.3386C84.1772 38.7969 84.4272 38.224 84.5886 37.6094C84.7501 36.9948 84.8178 36.3698 84.7918 35.7344C84.4741 32.5417 83.5001 29.5677 81.8751 26.8021C81.8022 26.6771 81.7136 26.5625 81.6095 26.4636C81.5053 26.3594 81.3907 26.2709 81.2657 26.1979C81.1407 26.125 81.0105 26.0729 80.8699 26.0365C80.7293 26 80.5834 25.9792 80.4428 25.9792C80.297 25.9792 80.1511 26 80.0105 26.0365C79.8699 26.0729 79.7397 26.125 79.6147 26.1979C79.4897 26.2709 79.3751 26.3594 79.2709 26.4636C79.1668 26.5625 79.0782 26.6771 79.0053 26.8021C77.3803 29.5677 76.4116 32.5417 76.0938 35.7344C76.0626 36.3698 76.1303 36.9948 76.2918 37.6094C76.4532 38.224 76.7032 38.7969 77.0366 39.3386C77.3751 39.875 77.7813 40.3542 78.2605 40.7709C78.7397 41.1875 79.2709 41.5261 79.8543 41.7813ZM80.448 31.474C81.0522 32.8386 81.3959 34.2656 81.4949 35.75C81.5366 36.7656 81.1928 37.6198 80.448 38.3177C79.7084 37.6198 79.3595 36.7656 79.4063 35.75C79.5001 34.2656 79.8491 32.8386 80.448 31.474Z" fill="#FFBC41"/>
<path d="M81.6771 42.6406C81.3333 43.1771 81.0781 43.7552 80.9114 44.3698C80.7448 44.9791 80.6718 45.6041 80.6927 46.2396C80.7135 46.8802 80.8333 47.4948 81.0416 48.0989C81.25 48.6979 81.5468 49.2552 81.9218 49.7656C82.1875 50.0833 82.526 50.276 82.9323 50.3437C83.1614 50.3594 83.3854 50.3594 83.6146 50.3437C84.7812 50.3541 85.8698 50.0573 86.8802 49.4635C87.8854 48.8698 88.6718 48.0573 89.2291 47.0312C90.5468 44.1094 91.1927 41.0416 91.1666 37.8385C91.1666 37.6927 91.1458 37.5521 91.1093 37.4114C91.0677 37.2708 91.0156 37.1354 90.9427 37.0104C90.8698 36.8854 90.7812 36.776 90.6771 36.6719C90.5729 36.5677 90.4583 36.4844 90.3333 36.4114C90.2083 36.3385 90.0781 36.2812 89.9375 36.2448C89.7968 36.2083 89.651 36.1927 89.5104 36.1927C89.3646 36.1927 89.2187 36.2083 89.0781 36.25C88.9427 36.2864 88.8073 36.3385 88.6823 36.4114C85.8906 37.9739 83.5573 40.0521 81.6771 42.6406ZM84.5416 44.2969C85.3593 43.0573 86.3698 41.9948 87.5729 41.1198C87.4114 42.5989 86.9948 44.0052 86.3281 45.3437C85.8541 46.2187 85.1302 46.7708 84.1614 47C83.8646 46.0469 83.9739 45.151 84.4896 44.2969H84.5416Z" fill="#FFBC41"/>
<path d="M80.448 73.7864C80.2292 73.7864 80.0157 73.8281 79.8126 73.9114C79.6095 73.9948 79.4324 74.1146 79.2761 74.2708C79.1199 74.4271 79.0001 74.6041 78.9167 74.8073C78.8334 75.0104 78.7917 75.2239 78.7917 75.4427V84.4896C78.7917 84.7083 78.8334 84.9166 78.9167 85.1198C79.0001 85.3229 79.1199 85.5052 79.2761 85.6614C79.4324 85.8125 79.6095 85.9323 79.8126 86.0208C80.0157 86.1041 80.2292 86.1458 80.448 86.1458C80.6667 86.1458 80.8803 86.1041 81.0834 86.0208C81.2865 85.9323 81.4636 85.8125 81.6199 85.6614C81.7761 85.5052 81.8959 85.3229 81.9792 85.1198C82.0626 84.9166 82.1042 84.7083 82.1042 84.4896V75.4427C82.1042 75.2239 82.0626 75.0104 81.9792 74.8073C81.8959 74.6041 81.7761 74.4271 81.6199 74.2708C81.4636 74.1146 81.2865 73.9948 81.0834 73.9114C80.8803 73.8281 80.6667 73.7864 80.448 73.7864Z" fill="#FFBC41"/>
<path d="M64.9949 51.1094C64.4428 50.7865 63.8907 50.7865 63.3334 51.1094C60.547 52.6823 58.2189 54.7708 56.3439 57.3698C56.0053 57.9062 55.7501 58.4792 55.5834 59.0938C55.4168 59.7083 55.3439 60.3333 55.3699 60.9688C55.3907 61.6042 55.5053 62.224 55.7136 62.8229C55.922 63.4219 56.2189 63.9792 56.5939 64.4948C56.8595 64.8125 57.1928 65.0052 57.6043 65.0729C57.8282 65.0885 58.0574 65.0885 58.2814 65.0729C59.4532 65.0781 60.5418 64.7865 61.547 64.1927C62.5574 63.599 63.3386 62.7865 63.9011 61.7604C65.2189 58.8385 65.8647 55.7708 65.8386 52.5625C65.8439 51.9115 65.5626 51.4271 64.9949 51.1094ZM61.0157 60.0677C60.5366 60.9531 59.8074 61.5052 58.8282 61.724C58.5418 60.7552 58.6668 59.8437 59.2084 58.9948C60.0314 57.7552 61.0418 56.6927 62.2449 55.8125C62.0886 57.3021 61.6772 58.724 61.0157 60.0677Z" fill="#FFBC41"/>
<path d="M53.9948 57.3854C52.1198 54.7865 49.7917 52.6979 47 51.125C46.875 51.0521 46.7448 50.9948 46.6042 50.9584C46.4636 50.9219 46.3229 50.9011 46.1771 50.9011C46.0313 50.9011 45.8906 50.9219 45.75 50.9584C45.6094 50.9948 45.474 51.0469 45.349 51.1198C45.224 51.1927 45.1094 51.2813 45.0052 51.3802C44.9011 51.4844 44.8177 51.599 44.7448 51.724C44.6667 51.849 44.6146 51.9792 44.5729 52.1198C44.5365 52.2604 44.5156 52.4011 44.5156 52.5469C44.4896 55.7552 45.1354 58.8177 46.4531 61.7448C47.0156 62.7709 47.7969 63.5834 48.8021 64.1771C49.8125 64.7709 50.9011 65.0625 52.0729 65.0573C52.2969 65.0729 52.5261 65.0729 52.75 65.0573C53.1615 64.9896 53.4948 64.7969 53.7604 64.474C54.1354 63.9636 54.4219 63.4115 54.625 62.8125C54.8334 62.2136 54.9479 61.599 54.9688 60.9688C54.9896 60.3334 54.9167 59.7136 54.75 59.1042C54.5834 58.4948 54.3281 57.9219 53.9948 57.3854ZM51.5052 61.7761C50.5261 61.5573 49.7969 61.0052 49.3229 60.1198C48.6563 58.7865 48.2396 57.375 48.0781 55.8959C49.2761 56.7761 50.2865 57.8334 51.1094 59.0729C51.6511 59.9167 51.7813 60.8177 51.5052 61.7761Z" fill="#FFBC41"/>
<path d="M64.9949 39.0313C64.4428 38.7135 63.8907 38.7135 63.3334 39.0313C60.547 40.6042 58.2189 42.6927 56.3439 45.2917C56.0053 45.8281 55.7501 46.4063 55.5834 47.0208C55.4168 47.6302 55.3439 48.2552 55.3699 48.8906C55.3907 49.526 55.5053 50.1458 55.7136 50.7448C55.922 51.349 56.2189 51.901 56.5939 52.4167C56.8595 52.7344 57.1928 52.9271 57.6043 52.9948C57.8282 53.0104 58.0574 53.0104 58.2814 52.9948C59.4532 53 60.5418 52.7083 61.547 52.1146C62.5574 51.5208 63.3386 50.7083 63.9011 49.6823C65.2189 46.7604 65.8647 43.6927 65.8386 40.4896C65.8439 39.8333 65.5626 39.349 64.9949 39.0313ZM61.0157 48.0417C60.5366 48.9271 59.8074 49.4792 58.8282 49.6979C58.5418 48.7292 58.6668 47.8177 59.2084 46.9635C60.0314 45.724 61.0418 44.6667 62.2449 43.7865C62.0886 45.276 61.6772 46.6979 61.0157 48.0417Z" fill="#FFBC41"/>
<path d="M52.0729 53.0104C52.2969 53.0313 52.526 53.0313 52.75 53.0104C53.1615 52.9427 53.4948 52.75 53.7604 52.4323C54.1354 51.9219 54.4323 51.3646 54.6406 50.7656C54.849 50.1615 54.9635 49.5469 54.9844 48.9115C55.0104 48.2709 54.9375 47.6511 54.7708 47.0365C54.6042 46.4219 54.349 45.8438 54.0104 45.3073C52.1354 42.7084 49.8073 40.625 47.0156 39.0469C46.8906 38.974 46.7604 38.9167 46.6198 38.8802C46.4792 38.8438 46.3385 38.8229 46.1927 38.8229C46.0469 38.8229 45.9063 38.8438 45.7656 38.8802C45.625 38.9167 45.4896 38.974 45.3646 39.0417C45.2396 39.1146 45.125 39.2031 45.0208 39.3073C44.9219 39.4063 44.8333 39.5209 44.7604 39.6459C44.6875 39.7709 44.6302 39.9063 44.5938 40.0417C44.5521 40.1823 44.5365 40.3281 44.5313 40.474C44.4948 43.6875 45.1354 46.7656 46.4531 49.6979C47.0156 50.724 47.7969 51.5365 48.8073 52.1302C49.8125 52.724 50.901 53.0156 52.0729 53.0104ZM51.125 46.9167C51.6875 47.7865 51.8125 48.7136 51.5052 49.6979C50.526 49.4792 49.7969 48.9271 49.3229 48.0417C48.6563 46.7084 48.2396 45.3021 48.0781 43.8177C49.2813 44.6823 50.2969 45.724 51.125 46.9479V46.9167Z" fill="#FFBC41"/>
<path d="M64.9949 26.9531C64.4428 26.6354 63.8907 26.6354 63.3334 26.9531C60.547 28.5313 58.2189 30.6146 56.3439 33.2135C56.0053 33.75 55.7501 34.3281 55.5834 34.9427C55.4168 35.5573 55.3439 36.1823 55.3699 36.8177C55.3907 37.4531 55.5053 38.0677 55.7136 38.6719C55.922 39.2708 56.2189 39.8281 56.5939 40.3385C56.8595 40.6563 57.1928 40.8542 57.6043 40.9167C57.8282 40.9375 58.0574 40.9375 58.2814 40.9167C59.4532 40.9271 60.5418 40.6302 61.547 40.0365C62.5574 39.4427 63.3386 38.6302 63.9011 37.6042C65.2189 34.6823 65.8647 31.6198 65.8386 28.4115C65.8439 27.7604 65.5626 27.2708 64.9949 26.9531ZM61.0157 35.9167C60.5418 36.7969 59.8178 37.349 58.8491 37.5729C58.5574 36.6042 58.6824 35.6927 59.2293 34.8385C60.0522 33.599 61.0626 32.5365 62.2605 31.6563C62.0991 33.151 61.6876 34.5729 61.0157 35.9167Z" fill="#FFBC41"/>
<path d="M54.5886 32.3541C54.9792 32.5052 55.375 32.5052 55.7657 32.3541C56.3438 32.0989 56.875 31.7604 57.3542 31.3437C57.8386 30.9271 58.2448 30.4531 58.5782 29.9114C58.9167 29.3698 59.1615 28.7969 59.323 28.1823C59.4844 27.5677 59.5521 26.9427 59.5261 26.3073C59.198 23.1198 58.224 20.151 56.5938 17.3958C56.5209 17.2708 56.4323 17.1562 56.3282 17.0521C56.2292 16.9479 56.1146 16.8646 55.9896 16.7916C55.8594 16.7187 55.7292 16.6614 55.5886 16.625C55.448 16.5885 55.3073 16.5677 55.1615 16.5677C55.0157 16.5677 54.875 16.5885 54.7344 16.625C54.5938 16.6614 54.4584 16.7187 54.3334 16.7916C54.2084 16.8646 54.0938 16.9479 53.9896 17.0521C53.8855 17.1562 53.8021 17.2708 53.7292 17.3958C52.099 20.1562 51.1302 23.1354 50.8125 26.3229C50.7865 26.9583 50.8542 27.5833 51.0209 28.1927C51.1823 28.8073 51.4323 29.3854 51.7709 29.9219C52.1042 30.4583 52.5157 30.9375 52.9948 31.3489C53.474 31.7656 54.0052 32.0989 54.5886 32.3541ZM55.1667 22.0521C55.7709 23.4114 56.1198 24.8385 56.2136 26.3229C56.2552 27.3333 55.9063 28.1823 55.1667 28.875C54.4323 28.1823 54.0834 27.3333 54.125 26.3229C54.2188 24.8385 54.5677 23.4114 55.1667 22.0521Z" fill="#FFBC41"/>
<path d="M52.0729 40.9688C52.2969 40.9844 52.5261 40.9844 52.75 40.9688C53.1615 40.901 53.4948 40.7083 53.7604 40.3906C54.1354 39.875 54.4323 39.3177 54.6406 38.7188C54.849 38.1198 54.9636 37.5 54.9844 36.8646C55.0104 36.2292 54.9375 35.6042 54.7709 34.9896C54.6042 34.375 54.349 33.8021 54.0104 33.2656C52.1354 30.6667 49.8073 28.5781 47.0156 27.0052C46.8906 26.9323 46.7604 26.875 46.6198 26.8385C46.4792 26.8021 46.3386 26.7812 46.1927 26.7812C46.0469 26.7812 45.9063 26.7969 45.7656 26.8385C45.625 26.875 45.4896 26.9271 45.3646 27C45.2396 27.0729 45.125 27.1615 45.0209 27.2604C44.9219 27.3646 44.8334 27.4792 44.7604 27.6042C44.6875 27.7292 44.6302 27.8594 44.5938 28C44.5521 28.1406 44.5365 28.2813 44.5313 28.4271C44.5052 31.6354 45.1511 34.6979 46.474 37.6198C47.0261 38.651 47.8073 39.4688 48.8073 40.0677C49.8125 40.6667 50.9011 40.9688 52.0729 40.9688ZM51.125 34.8698C51.6719 35.724 51.7969 36.6354 51.5052 37.6042C50.5261 37.3854 49.7969 36.8333 49.3229 35.9479C48.6563 34.6146 48.2396 33.2083 48.0781 31.724C49.2813 32.5937 50.2969 33.6406 51.125 34.8698Z" fill="#FFBC41"/>
<path d="M55.1667 64.3594C54.948 64.3594 54.7397 64.401 54.5365 64.4844C54.3334 64.5677 54.1511 64.6875 53.9949 64.8438C53.8438 65 53.724 65.1771 53.6407 65.3802C53.5522 65.5833 53.5105 65.7969 53.5105 66.0156V75.0625C53.5105 75.2813 53.5522 75.4948 53.6407 75.6979C53.724 75.901 53.8438 76.0781 53.9949 76.2344C54.1511 76.3906 54.3334 76.5104 54.5365 76.5938C54.7397 76.6771 54.948 76.7188 55.1667 76.7188C55.3907 76.7188 55.599 76.6771 55.8022 76.5938C56.0053 76.5104 56.1824 76.3906 56.3386 76.2344C56.4949 76.0781 56.6147 75.901 56.698 75.6979C56.7813 75.4948 56.823 75.2813 56.823 75.0625V66.0156C56.823 65.7969 56.7813 65.5833 56.698 65.3802C56.6147 65.1771 56.4949 65 56.3386 64.8438C56.1824 64.6875 56.0053 64.5677 55.8022 64.4844C55.599 64.401 55.3907 64.3594 55.1667 64.3594Z" fill="#FFBC41"/>
<mask id="mask0_510_1988" style="mask-type:luminance" maskUnits="userSpaceOnUse" x="5" y="4" width="100" height="101">
<path d="M5.46875 4.96875H104.87V104.37H5.46875V4.96875Z" fill="white"/>
</mask>
<g mask="url(#mask0_510_1988)">
<path d="M55.1667 4.96875C53.5417 4.96875 51.9167 5.05208 50.2969 5.20833C48.6771 5.36979 47.0677 5.60938 45.474 5.92708C43.875 6.24479 42.3021 6.63542 40.7396 7.10938C39.1823 7.58333 37.651 8.13021 36.151 8.75521C34.6458 9.375 33.1771 10.0729 31.7396 10.8385C30.3073 11.6042 28.9115 12.4427 27.5573 13.3438C26.2031 14.25 24.8958 15.2188 23.6406 16.25C22.3802 17.2813 21.1771 18.375 20.026 19.526C18.875 20.6771 17.7813 21.8802 16.75 23.1406C15.7188 24.3958 14.75 25.7031 13.8438 27.0573C12.9427 28.4115 12.1042 29.8073 11.3385 31.2396C10.5729 32.6771 9.875 34.1458 9.25521 35.651C8.63021 37.151 8.08333 38.6823 7.60938 40.2396C7.13542 41.8021 6.74479 43.375 6.42708 44.974C6.10938 46.5677 5.86979 48.1771 5.70833 49.7969C5.55208 51.4167 5.46875 53.0417 5.46875 54.6667C5.46875 56.2969 5.55208 57.9219 5.70833 59.5417C5.86979 61.1615 6.10938 62.7656 6.42708 64.3646C6.74479 65.9583 7.13542 67.5365 7.60938 69.0938C8.08333 70.651 8.63021 72.1823 9.25521 73.6875C9.875 75.1927 10.5729 76.6615 11.3385 78.099C12.1042 79.5312 12.9427 80.9271 13.8438 82.2812C14.75 83.6354 15.7188 84.9375 16.75 86.1979C17.7813 87.4531 18.875 88.6615 20.026 89.8125C21.1771 90.9635 22.3802 92.0521 23.6406 93.0885C24.8958 94.1198 26.2031 95.0885 27.5573 95.9896C28.9115 96.8958 30.3073 97.7344 31.7396 98.5C33.1771 99.2656 34.6458 99.9635 36.151 100.583C37.651 101.208 39.1823 101.755 40.7396 102.229C42.3021 102.698 43.875 103.094 45.474 103.411C47.0677 103.729 48.6771 103.969 50.2969 104.13C51.9167 104.286 53.5417 104.37 55.1667 104.37C56.7969 104.37 58.4219 104.286 60.0417 104.13C61.6615 103.969 63.2656 103.729 64.8646 103.411C66.4583 103.094 68.0365 102.698 69.5938 102.229C71.151 101.755 72.6823 101.208 74.1875 100.583C75.6927 99.9635 77.1615 99.2656 78.599 98.5C80.0312 97.7344 81.4271 96.8958 82.7812 95.9896C84.1354 95.0885 85.4375 94.1198 86.6979 93.0885C87.9531 92.0521 89.1615 90.9635 90.3125 89.8125C91.4635 88.6615 92.5521 87.4531 93.5885 86.1979C94.6198 84.9375 95.5885 83.6354 96.4896 82.2812C97.3958 80.9271 98.2344 79.5312 99 78.099C99.7656 76.6615 100.464 75.1927 101.083 73.6875C101.708 72.1823 102.255 70.651 102.729 69.0938C103.198 67.5365 103.594 65.9583 103.911 64.3646C104.229 62.7656 104.469 61.1615 104.63 59.5417C104.786 57.9219 104.87 56.2969 104.87 54.6667C104.87 53.0417 104.786 51.4167 104.63 49.7969C104.469 48.1771 104.229 46.5677 103.911 44.974C103.594 43.375 103.198 41.8021 102.729 40.2396C102.255 38.6823 101.708 37.151 101.083 35.651C100.464 34.1458 99.7656 32.6771 99 31.2396C98.2344 29.8073 97.3958 28.4115 96.4896 27.0573C95.5885 25.7031 94.6198 24.3958 93.5885 23.1406C92.5521 21.8802 91.4635 20.6771 90.3125 19.526C89.1615 18.375 87.9531 17.2813 86.6979 16.25C85.4375 15.2188 84.1354 14.25 82.7812 13.3438C81.4271 12.4427 80.0312 11.6042 78.599 10.8385C77.1615 10.0729 75.6927 9.375 74.1875 8.75521C72.6823 8.13021 71.151 7.58333 69.5938 7.10938C68.0365 6.63542 66.4583 6.24479 64.8646 5.92708C63.2656 5.60938 61.6615 5.36979 60.0417 5.20833C58.4219 5.05208 56.7969 4.96875 55.1667 4.96875ZM55.1667 101.052C53.651 101.052 52.1354 100.979 50.6198 100.833C49.1094 100.682 47.6094 100.458 46.1198 100.161C44.6302 99.8646 43.1562 99.5 41.7031 99.0573C40.25 98.6146 38.8229 98.1042 37.4167 97.5208C36.0156 96.9427 34.6406 96.2917 33.3021 95.5781C31.9635 94.8594 30.6615 94.0833 29.3958 93.2344C28.1354 92.3906 26.9167 91.4896 25.7396 90.526C24.5677 89.5625 23.4427 88.5417 22.3698 87.4688C21.2969 86.3958 20.276 85.2708 19.3125 84.0938C18.349 82.9219 17.4427 81.7031 16.599 80.4375C15.7552 79.1771 14.974 77.875 14.2604 76.5365C13.5417 75.1927 12.8958 73.8229 12.3125 72.4219C11.7344 71.0156 11.224 69.5885 10.7813 68.1354C10.3385 66.6823 9.96875 65.2083 9.67188 63.7188C9.38021 62.2292 9.15625 60.7292 9.00521 59.2135C8.85938 57.7031 8.78125 56.1875 8.78125 54.6667C8.78125 53.151 8.85938 51.6354 9.00521 50.1198C9.15625 48.6094 9.38021 47.1094 9.67188 45.6198C9.96875 44.1302 10.3385 42.6562 10.7813 41.2031C11.224 39.75 11.7344 38.3229 12.3125 36.9167C12.8958 35.5156 13.5417 34.1406 14.2604 32.8021C14.974 31.4635 15.7552 30.1615 16.599 28.8958C17.4427 27.6354 18.349 26.4167 19.3125 25.2396C20.276 24.0677 21.2969 22.9427 22.3698 21.8698C23.4427 20.7969 24.5677 19.776 25.7396 18.8125C26.9167 17.849 28.1354 16.9427 29.3958 16.099C30.6615 15.2552 31.9635 14.474 33.3021 13.7604C34.6406 13.0417 36.0156 12.3958 37.4167 11.8125C38.8229 11.2344 40.25 10.724 41.7031 10.2813C43.1562 9.83854 44.6302 9.46875 46.1198 9.17188C47.6094 8.88021 49.1094 8.65625 50.6198 8.50521C52.1354 8.35938 53.651 8.28125 55.1667 8.28125C56.6875 8.28125 58.2031 8.35938 59.7135 8.50521C61.2292 8.65625 62.7292 8.88021 64.2188 9.17188C65.7083 9.46875 67.1823 9.83854 68.6354 10.2813C70.0885 10.724 71.5156 11.2344 72.9219 11.8125C74.3229 12.3958 75.6927 13.0417 77.0365 13.7604C78.375 14.474 79.6771 15.2552 80.9375 16.099C82.2031 16.9427 83.4219 17.849 84.5938 18.8125C85.7708 19.776 86.8958 20.7969 87.9688 21.8698C89.0417 22.9427 90.0625 24.0677 91.026 25.2396C91.9896 26.4167 92.8906 27.6354 93.7344 28.8958C94.5833 30.1615 95.3594 31.4635 96.0781 32.8021C96.7917 34.1406 97.4427 35.5156 98.0208 36.9167C98.6042 38.3229 99.1146 39.75 99.5573 41.2031C100 42.6562 100.365 44.1302 100.661 45.6198C100.958 47.1094 101.182 48.6094 101.333 50.1198C101.479 51.6354 101.552 53.151 101.552 54.6667C101.552 56.1875 101.479 57.7031 101.333 59.2135C101.182 60.7292 100.958 62.2292 100.661 63.7188C100.365 65.2083 100 66.6823 99.5573 68.1354C99.1146 69.5885 98.6042 71.0156 98.0208 72.4219C97.4427 73.8229 96.7917 75.1927 96.0781 76.5365C95.3594 77.875 94.5833 79.1771 93.7344 80.4375C92.8906 81.7031 91.9896 82.9219 91.026 84.0938C90.0625 85.2708 89.0417 86.3958 87.9688 87.4688C86.8958 88.5417 85.7708 89.5625 84.5938 90.526C83.4219 91.4896 82.2031 92.3906 80.9375 93.2344C79.6771 94.0833 78.375 94.8594 77.0365 95.5781C75.6927 96.2917 74.3229 96.9427 72.9219 97.5208C71.5156 98.1042 70.0885 98.6146 68.6354 99.0573C67.1823 99.5 65.7083 99.8646 64.2188 100.161C62.7292 100.458 61.2292 100.682 59.7135 100.833C58.2031 100.979 56.6875 101.052 55.1667 101.052Z" fill="#FFBC41"/>
</g>
</svg>
