<svg width="108" height="84" viewBox="0 0 108 84" fill="none" xmlns="http://www.w3.org/2000/svg">
<g id="Group">
<path id="Vector" d="M53.5202 38.1268C52.6406 38.1212 51.7676 38.1051 50.901 38.0783C28.2215 37.38 10.3473 29.5819 10.3473 20.0646C10.3473 10.088 29.9881 2 54.2183 2C78.4486 2 98.0893 10.088 98.0893 20.0646C98.0893 26.5014 89.9132 32.1519 77.604 35.3514" stroke="white" stroke-width="4" stroke-linecap="round" stroke-linejoin="round"/>
<path id="Vector_2" d="M56.7991 48.4515C32.57 48.4515 10.3475 40.364 10.3475 30.3871" stroke="white" stroke-width="4" stroke-linecap="round" stroke-linejoin="round"/>
<path id="Vector_3" d="M98.0893 30.3871C98.0893 35.6725 92.5765 40.4278 83.7898 43.7313C82.27 44.3026 79.1474 45.3914 77.4442 45.871" stroke="white" stroke-width="4" stroke-linecap="round" stroke-linejoin="round"/>
<path id="Vector_4" d="M98.0893 40.7097C98.0893 50.6863 78.4486 58.7743 54.2186 58.7743C29.9885 58.7743 10.3475 50.6863 10.3475 40.7097" stroke="white" stroke-width="4" stroke-linecap="round" stroke-linejoin="round"/>
<path id="Vector_5" d="M98.0893 51.0323C98.0893 61.0089 78.4486 69.0969 54.2186 69.0969C29.9885 69.0969 10.3475 61.0091 10.3475 51.0323" stroke="white" stroke-width="4" stroke-linecap="round" stroke-linejoin="round"/>
<path id="Vector_6" d="M105.831 57.4839C105.831 71.0237 82.7226 82 54.2185 82C25.7144 82 2.60547 71.0237 2.60547 57.4839" stroke="white" stroke-width="4" stroke-linecap="round" stroke-linejoin="round"/>
<path id="Vector_7" d="M60.6701 17.4839C51.4059 17.4839 43.896 21.5279 43.896 26.5162C43.896 30.2732 48.1576 33.4927 54.2186 34.8539V44.5808C54.2263 45.6023 54.6376 46.5794 55.3627 47.299C56.0877 48.0186 57.0679 48.4224 58.0895 48.4224C59.111 48.4224 60.0912 48.0186 60.8163 47.299C61.5414 46.5794 61.9526 45.6023 61.9604 44.5808V49.7421C61.9681 50.7636 62.3794 51.7407 63.1045 52.4603C63.8296 53.1799 64.8097 53.5837 65.8313 53.5837C66.8528 53.5837 67.833 53.1799 68.5581 52.4603C69.2832 51.7407 69.6944 50.7636 69.7022 49.7421V42C69.7022 43.0267 70.11 44.0113 70.836 44.7373C71.5619 45.4632 72.5465 45.8711 73.5732 45.8711C74.5999 45.8711 75.5845 45.4632 76.3104 44.7373C77.0364 44.0113 77.4442 43.0267 77.4442 42V26.5162C77.4442 21.5279 69.9339 17.4839 60.6701 17.4839Z" stroke="white" stroke-width="4" stroke-linecap="round" stroke-linejoin="round"/>
</g>
</svg>
