<svg width="95" height="84" viewBox="0 0 95 84" fill="none" xmlns="http://www.w3.org/2000/svg">
<g id="Group">
<path id="Vector" d="M92.8277 34.0001V79.091C92.8277 80.699 91.5251 82.0001 89.9186 82.0001H5.55496C3.94842 82.0001 2.64587 80.699 2.64587 79.091V34.0001C2.64587 32.395 3.94842 31.091 5.55496 31.091L55.0038 23.1805" stroke="black" stroke-width="4" stroke-miterlimit="10" stroke-linecap="round" stroke-linejoin="round"/>
<path id="Vector_2" d="M79.7639 19.5292C87.1004 20.2713 92.8277 26.4689 92.8277 34.0001" stroke="black" stroke-width="4" stroke-miterlimit="10" stroke-linecap="round" stroke-linejoin="round"/>
<path id="Vector_3" d="M2.64587 51.4546H4.10042C8.11744 51.4546 11.3731 48.1989 11.3731 44.1834C11.3731 40.1663 14.6289 36.9092 18.6459 36.9092C22.6629 36.9092 25.9186 40.1663 25.9186 44.1834C25.9186 48.1989 29.1743 51.4546 33.1913 51.4546C37.2083 51.4546 40.4641 48.1989 40.4641 44.1834C40.4641 40.1663 43.7198 36.9092 47.7368 36.9092C51.7538 36.9092 55.0095 40.1663 55.0095 44.1834C55.0095 48.1989 58.2652 51.4546 62.2822 51.4546C66.2993 51.4546 69.555 48.1989 69.555 44.1834C69.555 40.1663 72.8107 36.9092 76.8277 36.9092C80.8447 36.9092 84.1004 40.1663 84.1004 44.1834C84.1004 48.1989 87.3561 51.4546 91.3731 51.4546H92.8277" stroke="black" stroke-width="4" stroke-miterlimit="10" stroke-linecap="round" stroke-linejoin="round"/>
<path id="Vector_4" d="M2.64587 63.0911H92.8277" stroke="black" stroke-width="4" stroke-miterlimit="10" stroke-linecap="round" stroke-linejoin="round"/>
<path id="Vector_5" d="M2.64587 68.9091H92.8277" stroke="black" stroke-width="4" stroke-miterlimit="10" stroke-linecap="round" stroke-linejoin="round"/>
<path id="Vector_6" d="M67.3731 26.7279C71.3897 26.7279 74.6459 23.4718 74.6459 19.4552C74.6459 15.4385 71.3897 12.1824 67.3731 12.1824C63.3565 12.1824 60.1004 15.4385 60.1004 19.4552C60.1004 23.4718 63.3565 26.7279 67.3731 26.7279Z" stroke="black" stroke-width="4" stroke-miterlimit="10" stroke-linecap="round" stroke-linejoin="round"/>
<path id="Vector_7" d="M67.3732 16.5455C67.3732 8.51214 73.8846 2 81.9186 2" stroke="black" stroke-width="4" stroke-miterlimit="10" stroke-linecap="round" stroke-linejoin="round"/>
</g>
</svg>
