<svg width="48" height="48" viewBox="0 0 48 48" fill="none" xmlns="http://www.w3.org/2000/svg">
<g id="fxemoji:italianflag">
<path id="Vector" d="M1.50947 40.6385C6.31481 41.7573 11.1202 41.7162 15.9256 41.2617V41.248C25.9333 40.2259 35.941 37.2427 45.9488 39.6497C46.8811 39.8739 47.7769 39.1644 47.7769 38.2055V8.81532C47.7769 8.75607 47.7722 8.69785 47.7653 8.6402C47.5361 8.03401 46.9997 7.50648 46.3746 7.36154C37.2387 5.23454 28.1028 7.29685 18.9669 8.4302C17.9532 8.56632 16.9395 8.69017 15.9258 8.79376V8.76564C11.1204 9.22014 6.315 9.2612 1.50966 8.14239C0.675844 7.94907 0 8.4272 0 9.26139V38.7386C0 39.5717 0.675844 40.4453 1.50947 40.6385Z" fill="#00B89C"/>
<path id="Vector_2" d="M47.7768 8.67489C47.5552 8.05436 47.0115 7.50911 46.3744 7.36146C41.5333 6.23439 36.6923 6.28427 31.8512 6.74833V39.2445C36.6923 38.7805 41.5333 38.7306 46.3744 39.8577C47.0114 40.0053 47.5552 39.7601 47.7768 39.2644V8.67489Z" fill="#FF473E"/>
<path id="Vector_3" d="M15.9256 41.2617C21.2341 40.7596 26.5427 39.7534 31.8512 39.2445V6.74829C26.5427 7.25717 21.2341 8.26338 15.9256 8.76551V41.2617Z" fill="#E8E8E8"/>
</g>
</svg>
