<svg width="115" height="80" viewBox="0 0 115 80" fill="none" xmlns="http://www.w3.org/2000/svg">
<g id="Lunch Icon">
<path id="Vector" d="M60.3833 80C38.7833 80 21.1833 62.6667 21.1833 41.3333C21.1833 20 38.7833 2.66667 60.3833 2.66667C81.9833 2.66667 99.5833 20 99.5833 41.3333C99.5833 62.6667 82.0721 80 60.3833 80ZM60.3833 7.02222C41.1833 7.02222 25.5388 22.4 25.5388 41.3333C25.5388 60.2667 41.1833 75.6444 60.3833 75.6444C79.5833 75.6444 95.2277 60.2667 95.2277 41.3333C95.2277 22.4 79.5833 7.02222 60.3833 7.02222ZM60.3833 67.8222C45.5388 67.8222 33.5388 55.9111 33.5388 41.3333C33.5388 26.7556 45.6277 14.9333 60.3833 14.9333C75.1388 14.9333 87.2277 26.8444 87.2277 41.4222C87.2277 56 75.2277 67.8222 60.3833 67.8222ZM60.3833 17.7778C47.2277 17.7778 36.4721 28.3556 36.4721 41.3333C36.4721 54.4 47.2277 64.8889 60.3833 64.8889C73.5388 64.8889 84.2944 54.3111 84.2944 41.3333C84.2944 28.3556 73.5388 17.7778 60.3833 17.7778ZM43.1388 41.3333C43.1388 31.9111 50.8721 24.2667 60.3833 24.2667C60.8277 24.2667 61.0944 23.9111 61.0944 23.5556C61.0944 23.1111 60.7388 22.8444 60.3833 22.8444C50.0721 22.8444 41.6277 31.1111 41.6277 41.3333C41.6277 41.7778 41.9833 42.0444 42.3388 42.0444C42.7833 42.0444 43.1388 41.7778 43.1388 41.3333ZM110.161 48.1778V76.8C110.161 77.6 110.783 78.2222 111.672 78.2222H113.094C113.894 78.2222 114.605 77.6 114.605 76.8V2.22222C114.605 1.42222 113.983 0.8 113.094 0.8H112.294C109.45 0.8 105.894 11.3778 105.894 24.4444C105.894 36.0889 106.517 45.7778 108.917 47.7333L110.161 48.1778ZM15.8499 0C15.0499 0 14.3388 0.622223 14.3388 1.42222V14.0444H12.561V1.77778C12.561 0.977778 11.9388 0.355555 11.0499 0.355555C10.2499 0.355555 9.53881 0.977778 9.53881 1.77778V14.0444H8.20548V1.77778C8.20548 0.977778 7.58325 0.355555 6.69436 0.355555C5.89436 0.355555 5.27214 0.977778 5.27214 1.77778V14.0444H3.76103V1.42222C3.76103 0.622223 3.13881 0 2.24992 0C1.36103 0 0.827698 0.622223 0.827698 1.42222V27.0222H6.51659V76.7111C6.51659 77.5111 7.13881 78.1333 8.0277 78.1333H9.71659C10.5166 78.1333 11.2277 77.5111 11.2277 76.7111V27.0222H17.361V1.42222C17.2721 0.622223 16.6499 0 15.8499 0Z" fill="white"/>
</g>
</svg>
