<svg width="111" height="110" viewBox="0 0 111 110" fill="none" xmlns="http://www.w3.org/2000/svg">
<mask id="mask0_510_1971" style="mask-type:luminance" maskUnits="userSpaceOnUse" x="9" y="58" width="44" height="47">
<path d="M9.15112 58.4219H52.0522V104.365H9.15112V58.4219Z" fill="white"/>
</mask>
<g mask="url(#mask0_510_1971)">
<path d="M11.4949 68.3438L34.224 74.8385V101.427L11.4949 91.849V68.3438ZM50.4011 95.6354L36.5678 101.427V74.8385L38.8959 74.1719C39.5157 73.9948 39.8751 73.3437 39.698 72.724C39.6928 72.7031 39.6876 72.6823 39.6824 72.6667C39.5834 72.3802 39.3855 72.1563 39.1407 72.0208C38.8803 71.875 38.5626 71.8281 38.2501 71.9167L35.3959 72.7344L14.5938 66.7917L35.3959 60.8438L43.349 63.1198C43.974 63.2969 44.6251 62.9375 44.8022 62.3125C44.9792 61.6927 44.6199 61.0417 43.9949 60.8646L35.7188 58.5C35.5053 58.4375 35.2813 58.4375 35.073 58.5L10.0053 65.6615C10.0001 65.6615 9.99487 65.6667 9.99487 65.6667C9.96883 65.6719 9.93758 65.6823 9.91154 65.6927C9.90633 65.6927 9.90633 65.6979 9.90112 65.6979C9.88029 65.7083 9.85425 65.7135 9.83342 65.724C9.82821 65.7292 9.81779 65.7344 9.81258 65.7344C9.79175 65.7448 9.77092 65.7552 9.75008 65.7708C9.74487 65.7708 9.73967 65.776 9.73446 65.776C9.71362 65.7917 9.68758 65.8073 9.66675 65.8229C9.65633 65.8281 9.65112 65.8333 9.64592 65.8385C9.6355 65.8438 9.62508 65.849 9.61987 65.8542C9.60946 65.8594 9.60425 65.8646 9.59904 65.8698C9.58862 65.875 9.58342 65.8854 9.573 65.8906C9.55216 65.9063 9.53133 65.9219 9.51571 65.9427C9.5105 65.9479 9.5105 65.9479 9.50529 65.9479C9.48967 65.9687 9.47404 65.9844 9.45321 66.0052C9.448 66.0104 9.44279 66.0156 9.43758 66.0208C9.42716 66.0365 9.41154 66.0573 9.39592 66.0729C9.39592 66.0781 9.39071 66.0833 9.3855 66.0885C9.36987 66.1094 9.35425 66.1354 9.33862 66.1562C9.33342 66.1615 9.33342 66.1667 9.32821 66.1719C9.31779 66.1927 9.30737 66.2083 9.29696 66.2292C9.29175 66.2344 9.28654 66.2448 9.28654 66.25C9.27092 66.2708 9.2605 66.2917 9.25529 66.3177C9.25008 66.3177 9.25008 66.3229 9.25008 66.3281C9.23967 66.3542 9.22925 66.375 9.21883 66.401C9.21362 66.4115 9.21362 66.4219 9.20842 66.4271C9.20321 66.4479 9.198 66.4687 9.19279 66.4896C9.19279 66.4948 9.18758 66.5052 9.18758 66.5104C9.18237 66.5365 9.17196 66.5625 9.17196 66.5938C9.16675 66.599 9.16675 66.6042 9.16675 66.6094C9.16154 66.6354 9.16154 66.6563 9.15633 66.6771C9.15633 66.6875 9.15633 66.6927 9.15633 66.7031C9.15633 66.7344 9.15112 66.7604 9.15112 66.7917V92.625C9.15112 93.099 9.43758 93.526 9.86987 93.7083L34.9376 104.271C34.948 104.276 34.9584 104.276 34.9636 104.281C34.9688 104.286 34.9792 104.286 34.9845 104.292C35.0053 104.297 35.0313 104.307 35.0574 104.312C35.0574 104.312 35.0626 104.318 35.0678 104.318C35.0886 104.323 35.1095 104.328 35.1303 104.333C35.1355 104.333 35.1407 104.339 35.1511 104.339C35.172 104.344 35.198 104.349 35.224 104.349H35.2292C35.2501 104.354 35.2761 104.359 35.3022 104.359C35.3074 104.359 35.3126 104.359 35.3178 104.359C35.3438 104.365 35.3699 104.365 35.3959 104.365C35.422 104.365 35.4428 104.365 35.4688 104.359C35.4792 104.359 35.4845 104.359 35.4897 104.359C35.5157 104.359 35.5365 104.354 35.5626 104.349C35.5626 104.349 35.5626 104.349 35.5678 104.349C35.5886 104.349 35.6147 104.344 35.6407 104.339C35.6459 104.339 35.6511 104.333 35.6563 104.333C35.6824 104.328 35.7032 104.323 35.724 104.318C35.724 104.318 35.7292 104.312 35.7345 104.312C35.7553 104.307 35.7813 104.297 35.8022 104.292C35.8126 104.286 35.8178 104.286 35.823 104.281C35.8334 104.281 35.8386 104.276 35.849 104.271L51.3074 97.7969C51.9063 97.5469 52.1876 96.8594 51.9376 96.2656C51.6876 95.6667 51.0001 95.3854 50.4011 95.6354Z" fill="#FFBC41"/>
</g>
<mask id="mask1_510_1971" style="mask-type:luminance" maskUnits="userSpaceOnUse" x="42" y="52" width="60" height="51">
<path d="M42.5833 52H101.187V102.589H42.5833V52Z" fill="white"/>
</mask>
<g mask="url(#mask1_510_1971)">
<path d="M85.9219 100.13L61.5677 96.4115L64.5416 91.5417L75.4271 73.7135L75.4896 73.7344L98.2031 80.0104L85.9219 100.13ZM57.4114 55.1094L73.4219 72.4896L59.5677 95.1875L45.1614 75.1719L57.4114 55.1094ZM96.375 77.0729L75.5208 71.3073L60.8594 55.3958L81.7135 61.1615L96.375 77.0729ZM101.094 79.75C101.099 79.7396 101.099 79.7344 101.104 79.7292C101.115 79.7031 101.125 79.6771 101.13 79.651C101.135 79.6458 101.135 79.6354 101.141 79.6302C101.146 79.6094 101.151 79.5885 101.156 79.5677C101.156 79.5625 101.156 79.5521 101.161 79.5417C101.167 79.5156 101.172 79.4896 101.177 79.4635C101.177 79.4583 101.177 79.4531 101.177 79.4531C101.177 79.4271 101.182 79.4063 101.182 79.3802C101.182 79.3698 101.182 79.3646 101.187 79.3542C101.187 79.3333 101.187 79.3125 101.187 79.2865C101.187 79.2813 101.187 79.276 101.187 79.2708C101.187 79.2448 101.182 79.2135 101.182 79.1875C101.182 79.1823 101.182 79.1771 101.177 79.1667C101.177 79.1458 101.172 79.125 101.172 79.1042C101.167 79.0938 101.167 79.0885 101.167 79.0781C101.161 79.0521 101.156 79.0313 101.151 79.0052C101.151 79.0052 101.151 79 101.146 78.9948C101.141 78.9688 101.13 78.9427 101.125 78.9167C101.12 78.9115 101.12 78.901 101.115 78.8906C101.109 78.8854 101.109 78.875 101.104 78.8646C101.099 78.8542 101.099 78.849 101.094 78.8385C101.089 78.8281 101.083 78.8229 101.083 78.8125C101.073 78.7865 101.057 78.7656 101.047 78.7396C101.042 78.7344 101.042 78.7292 101.036 78.724C101.026 78.7031 101.016 78.6875 101.005 78.6667C101 78.6563 100.995 78.651 100.99 78.6458C100.974 78.625 100.958 78.6042 100.948 78.5833C100.943 78.5833 100.943 78.5781 100.937 78.5729C100.922 78.5521 100.901 78.5313 100.88 78.5104C100.88 78.5052 100.88 78.5052 100.875 78.5L83.2135 59.3281C83.0625 59.1667 82.8698 59.0469 82.6614 58.9896L57.5312 52.0417H57.526C57.4948 52.0313 57.4687 52.026 57.4375 52.0208H57.4323C57.4062 52.0156 57.3802 52.0104 57.3541 52.0052C57.3437 52.0052 57.3385 52.0052 57.3281 52.0052C57.3073 52.0052 57.2812 52 57.2552 52C57.25 52 57.25 52 57.2448 52C57.2187 52 57.1875 52 57.1614 52C57.151 52 57.1458 52.0052 57.1354 52.0052C57.125 52.0052 57.1146 52.0052 57.1041 52.0052C57.0937 52.0052 57.0833 52.0104 57.0781 52.0104C57.0677 52.0104 57.0573 52.0104 57.0469 52.0104C57.0208 52.0156 56.9948 52.0208 56.9687 52.026C56.9635 52.026 56.9635 52.026 56.9583 52.0312C56.9375 52.0365 56.9114 52.0417 56.8854 52.0469C56.8802 52.0521 56.8698 52.0521 56.8646 52.0573C56.8437 52.0625 56.8229 52.0677 56.8021 52.0781C56.7969 52.0781 56.7916 52.0833 56.7812 52.0833C56.7552 52.0937 56.7344 52.1042 56.7083 52.1198C56.7031 52.1198 56.6979 52.125 56.6927 52.125C56.6719 52.1354 56.651 52.1458 56.6354 52.1562C56.625 52.1615 56.6198 52.1667 56.6094 52.1719C56.5885 52.1823 56.5677 52.1979 56.5521 52.2083C56.5469 52.2135 56.5416 52.2135 56.5416 52.2135C56.5208 52.2292 56.4948 52.25 56.4739 52.2656C56.4687 52.2708 56.4635 52.276 56.4531 52.2812C56.4427 52.2969 56.4271 52.3073 56.4114 52.3229C56.4062 52.3281 56.401 52.3333 56.3906 52.3438C56.375 52.3594 56.3541 52.3802 56.3385 52.401C56.3333 52.4063 56.3281 52.4115 56.3229 52.4167C56.3073 52.4323 56.2969 52.4531 56.2812 52.4688C56.276 52.474 56.2708 52.4844 56.2656 52.4896C56.25 52.5104 56.2344 52.5365 56.2187 52.5573V52.5625L42.7552 74.6146C42.5104 75.0156 42.5312 75.526 42.8073 75.9115L58.6979 97.9844V97.9896C58.7031 97.9948 58.7083 98 58.7083 98.0052C58.7291 98.0313 58.75 98.0573 58.7708 98.0781C58.776 98.0833 58.7812 98.0938 58.7864 98.099C58.7916 98.1042 58.7969 98.1094 58.8073 98.1146C58.8177 98.125 58.8281 98.1406 58.8385 98.151C58.8437 98.1563 58.8489 98.1615 58.8541 98.1667C58.8646 98.1771 58.8802 98.1875 58.8906 98.1979C58.8958 98.2031 58.901 98.2083 58.9114 98.2135C58.9219 98.224 58.9323 98.2292 58.9427 98.2396C58.9531 98.2448 58.9583 98.25 58.9687 98.2552C58.9791 98.2656 58.9896 98.2708 59 98.2812C59.0104 98.2865 59.0208 98.2917 59.026 98.2969C59.0364 98.3021 59.0521 98.3125 59.0625 98.3177C59.0729 98.3229 59.0781 98.3281 59.0885 98.3333C59.0989 98.3385 59.1094 98.3438 59.125 98.349C59.1302 98.3542 59.1406 98.3594 59.151 98.3646C59.1614 98.3698 59.1771 98.375 59.1875 98.3802C59.1979 98.3854 59.2083 98.3906 59.2187 98.3958C59.2291 98.3958 59.2396 98.401 59.25 98.4062C59.2604 98.4115 59.2708 98.4115 59.2812 98.4167C59.2969 98.4219 59.3073 98.4271 59.3177 98.4271C59.3281 98.4323 59.3385 98.4323 59.3489 98.4375C59.3646 98.4427 59.375 98.4427 59.3854 98.4479C59.401 98.4479 59.4114 98.4531 59.4219 98.4531C59.4323 98.4531 59.4479 98.4583 59.4583 98.4583C59.4635 98.4635 59.4687 98.4635 59.4739 98.4635L86.3385 102.562C86.401 102.573 86.4583 102.578 86.5208 102.578C86.9219 102.578 87.3021 102.37 87.5208 102.016L101.016 79.9062C101.031 79.8854 101.042 79.8594 101.057 79.8333C101.062 79.8229 101.062 79.8177 101.068 79.8073C101.078 79.7865 101.089 79.7708 101.094 79.75Z" fill="#FFBC41"/>
</g>
<mask id="mask2_510_1971" style="mask-type:luminance" maskUnits="userSpaceOnUse" x="25" y="4" width="51" height="51">
<path d="M25.8333 4.96875H75.1666V54.6667H25.8333V4.96875Z" fill="white"/>
</mask>
<g mask="url(#mask2_510_1971)">
<path d="M42.0261 8.60939L42.7917 11.8698L46.5886 28L31.4167 45.0625L28.6094 23.6979L42.0261 8.60939ZM71.9636 36.8073L51.7604 28.6302L48.8698 27.4636L44.3073 8.08335L65.2031 16.5365L71.9636 36.8073ZM29.4271 47.9115C29.4271 47.9115 29.4271 47.9167 29.4323 47.9219C29.4323 47.9375 29.4375 47.9584 29.4375 47.974C29.4427 47.9844 29.4427 47.9896 29.4427 48C29.4479 48.0209 29.4531 48.0417 29.4584 48.0625C29.4584 48.0677 29.4636 48.0729 29.4636 48.0781C29.4688 48.1042 29.4792 48.1302 29.4896 48.1511C29.4896 48.1615 29.4948 48.1719 29.4948 48.1823C29.5052 48.1979 29.5104 48.2136 29.5156 48.2292C29.5209 48.2344 29.5261 48.2448 29.5313 48.2552C29.5365 48.2709 29.5417 48.2865 29.5521 48.2969C29.5573 48.3073 29.5625 48.3177 29.5677 48.3281C29.5729 48.3386 29.5834 48.3542 29.5886 48.3698C29.5938 48.375 29.599 48.3854 29.6094 48.3959C29.6146 48.4063 29.625 48.4219 29.6354 48.4323C29.6406 48.4427 29.6459 48.4531 29.6511 48.4584C29.6615 48.474 29.6719 48.4844 29.6823 48.5C29.6875 48.5052 29.6927 48.5156 29.7031 48.5209C29.7136 48.5365 29.724 48.5469 29.7344 48.5573C29.7396 48.5677 29.75 48.5729 29.7552 48.5781C29.7709 48.599 29.7917 48.6146 29.8125 48.6302C29.8125 48.6354 29.8125 48.6354 29.8177 48.6354C29.8334 48.6511 29.8542 48.6667 29.8698 48.6823C29.875 48.6875 29.8854 48.6927 29.8906 48.6979C29.9063 48.7084 29.9219 48.7188 29.9323 48.7292C29.9427 48.7344 29.9531 48.7396 29.9584 48.7448C29.974 48.7552 29.9896 48.7604 30 48.7709C30.0104 48.7761 30.0209 48.7813 30.0313 48.7865C30.0417 48.7917 30.0573 48.8021 30.0729 48.8073C30.0834 48.8125 30.0886 48.8177 30.099 48.8229C30.1146 48.8281 30.1302 48.8334 30.1459 48.8438C30.1563 48.8438 30.1667 48.849 30.1771 48.8542C30.1927 48.8594 30.2084 48.8646 30.224 48.8698C30.2344 48.875 30.2396 48.875 30.2448 48.8802C30.25 48.8802 30.25 48.8802 30.25 48.8802C30.2552 48.8802 30.2552 48.8802 30.2552 48.8802L48.4948 54.2969C48.6094 54.3281 48.7188 54.3438 48.8281 54.3438C49.3334 54.3438 49.8021 54.0156 49.9531 53.5052C50.1354 52.8854 49.7813 52.2344 49.1615 52.0469L32.6927 47.1563L48.1979 29.7188L71.9011 39.3073L65.099 46.9583C64.6667 47.4427 64.7136 48.1823 65.1979 48.6146C65.6823 49.0417 66.4219 49 66.849 48.5156L74.7552 39.625C74.7657 39.6146 74.7761 39.6042 74.7813 39.5938C74.7865 39.5833 74.7917 39.5781 74.7969 39.5729C74.8125 39.5521 74.8282 39.5313 74.8438 39.5104C74.849 39.5052 74.8542 39.5 74.8594 39.4948C74.8646 39.4792 74.875 39.4636 74.8854 39.4479C74.8907 39.4375 74.8959 39.4271 74.9011 39.4219C74.9063 39.4063 74.9167 39.3906 74.9219 39.3802C74.9271 39.3698 74.9323 39.3594 74.9375 39.349C74.9427 39.3386 74.9479 39.3229 74.9584 39.3073C74.9584 39.2969 74.9636 39.2865 74.9688 39.2813C74.974 39.2656 74.9792 39.2448 74.9844 39.2292C74.9896 39.224 74.9896 39.2136 74.9948 39.2083C75 39.1823 75.0104 39.1615 75.0157 39.1354C75.0157 39.1302 75.0157 39.1302 75.0157 39.125C75.0209 39.1042 75.0261 39.0833 75.0313 39.0573C75.0313 39.0521 75.0365 39.0417 75.0365 39.0365C75.0365 39.0156 75.0417 39 75.0417 38.9844C75.0417 38.974 75.0469 38.9636 75.0469 38.9531C75.0469 38.9375 75.0469 38.9219 75.0469 38.9063C75.0521 38.8958 75.0521 38.8854 75.0521 38.875C75.0521 38.8594 75.0521 38.8438 75.0521 38.8281C75.0521 38.8177 75.0521 38.8073 75.0521 38.7969C75.0469 38.7761 75.0469 38.7604 75.0469 38.7396C75.0469 38.7344 75.0469 38.7292 75.0469 38.7188C75.0417 38.6979 75.0365 38.6719 75.0313 38.6458C75.0313 38.6354 75.0313 38.6302 75.0261 38.6198C75.0261 38.6042 75.0209 38.5938 75.0209 38.5781C75.0209 38.5781 75.0157 38.5729 75.0157 38.5677C75.0157 38.5573 75.0104 38.5469 75.0104 38.5365C75.0052 38.5208 75 38.5052 74.9948 38.4896C74.9948 38.4844 74.9948 38.4792 74.9896 38.474L67.2552 15.2813C67.1459 14.9531 66.9011 14.6927 66.5834 14.5625L43.0886 5.06251C43.0781 5.05731 43.0677 5.0521 43.0573 5.04689C43.0417 5.04168 43.0261 5.03647 43.0156 5.03126C42.9948 5.02605 42.9792 5.02085 42.9636 5.01564C42.9531 5.01564 42.9479 5.01043 42.9375 5.01043C42.9167 5.00522 42.8959 5.00001 42.8802 5.00001C42.8698 4.99481 42.8646 4.99481 42.8542 4.99481C42.8386 4.9896 42.8229 4.9896 42.8073 4.98439C42.7969 4.98439 42.7865 4.98439 42.7761 4.97918C42.6459 4.96876 42.5156 4.97397 42.3906 5.00522C42.3906 5.00522 42.3854 5.00522 42.3802 5.00522C42.3646 5.01043 42.3438 5.01564 42.3281 5.02085C42.3177 5.02085 42.3125 5.02605 42.3073 5.02605C42.2917 5.03126 42.2761 5.03647 42.2604 5.04168C42.25 5.04689 42.2396 5.04689 42.2292 5.0521C42.2136 5.05731 42.1979 5.06772 42.1823 5.07293C42.1719 5.07814 42.1615 5.08335 42.1511 5.08855C42.1302 5.09376 42.1094 5.10939 42.0886 5.11981C42.0834 5.11981 42.0781 5.12501 42.0729 5.12501C42.0521 5.13543 42.0365 5.14585 42.0156 5.16147C42.0104 5.16147 42.0104 5.16668 42.0052 5.16668C41.9844 5.18231 41.9688 5.19272 41.9531 5.20314C41.9479 5.20835 41.9427 5.21355 41.9375 5.21876C41.9219 5.22918 41.9011 5.24481 41.8854 5.25522C41.8802 5.26043 41.875 5.27085 41.8646 5.27605C41.8542 5.28647 41.8386 5.29689 41.8281 5.31251C41.8177 5.32293 41.8073 5.33335 41.7969 5.34376C41.7917 5.34897 41.7813 5.35939 41.7709 5.36981L26.5052 22.5417C26.2761 22.7969 26.1719 23.1354 26.2188 23.474L29.4271 47.9115Z" fill="#FFBC41"/>
</g>
</svg>
