<svg width="41" height="40" viewBox="0 0 41 40" fill="none" xmlns="http://www.w3.org/2000/svg">
<path fill-rule="evenodd" clip-rule="evenodd" d="M21.086 15.414C20.7111 15.039 20.5004 14.5303 20.5004 14C20.5004 13.4697 20.7111 12.9611 21.086 12.586L27.086 6.58601C27.2705 6.39499 27.4912 6.24263 27.7352 6.13781C27.9792 6.03299 28.2416 5.97782 28.5072 5.97551C28.7728 5.9732 29.0361 6.0238 29.2819 6.12437C29.5277 6.22493 29.751 6.37343 29.9388 6.56122C30.1266 6.74901 30.2751 6.97231 30.3756 7.2181C30.4762 7.46389 30.5268 7.72725 30.5245 7.99281C30.5222 8.25837 30.467 8.52081 30.3622 8.76482C30.2574 9.00883 30.105 9.22952 29.914 9.41401L23.914 15.414C23.5389 15.789 23.0303 15.9996 22.5 15.9996C21.9697 15.9996 21.4611 15.789 21.086 15.414Z" fill="#FFF9F3"/>
<path fill-rule="evenodd" clip-rule="evenodd" d="M35.914 15.414C35.539 15.789 35.0303 15.9996 34.5 15.9996C33.9697 15.9996 33.4611 15.789 33.086 15.414L27.086 9.41402C26.7217 9.03682 26.5201 8.53161 26.5247 8.00722C26.5292 7.48282 26.7396 6.9812 27.1104 6.61038C27.4812 6.23957 27.9828 6.02923 28.5072 6.02467C29.0316 6.02012 29.5368 6.2217 29.914 6.58602L35.914 12.586C36.289 12.9611 36.4996 13.4697 36.4996 14C36.4996 14.5303 36.289 15.039 35.914 15.414Z" fill="#FFF9F3"/>
<path fill-rule="evenodd" clip-rule="evenodd" d="M28.5 10C29.0305 10 29.5392 10.2107 29.9142 10.5858C30.2893 10.9609 30.5 11.4696 30.5 12V28C30.5 28.5304 30.2893 29.0391 29.9142 29.4142C29.5392 29.7893 29.0305 30 28.5 30C27.9696 30 27.4609 29.7893 27.0858 29.4142C26.7107 29.0391 26.5 28.5304 26.5 28V12C26.5 11.4696 26.7107 10.9609 27.0858 10.5858C27.4609 10.2107 27.9696 10 28.5 10ZM19.914 24.586C20.289 24.9611 20.4996 25.4697 20.4996 26C20.4996 26.5303 20.289 27.0389 19.914 27.414L13.914 33.414C13.5368 33.7783 13.0316 33.9799 12.5072 33.9753C11.9828 33.9708 11.4812 33.7605 11.1104 33.3896C10.7396 33.0188 10.5292 32.5172 10.5247 31.9928C10.5201 31.4684 10.7217 30.9632 11.086 30.586L17.086 24.586C17.4611 24.2111 17.9697 24.0004 18.5 24.0004C19.0303 24.0004 19.539 24.2111 19.914 24.586Z" fill="#FFF9F3"/>
<path fill-rule="evenodd" clip-rule="evenodd" d="M5.086 24.586C5.46106 24.2111 5.96967 24.0004 6.5 24.0004C7.03033 24.0004 7.53894 24.2111 7.914 24.586L13.914 30.586C14.105 30.7705 14.2574 30.9912 14.3622 31.2352C14.467 31.4792 14.5222 31.7416 14.5245 32.0072C14.5268 32.2728 14.4762 32.5361 14.3756 32.7819C14.2751 33.0277 14.1266 33.251 13.9388 33.4388C13.751 33.6266 13.5277 33.7751 13.2819 33.8756C13.0361 33.9762 12.7728 34.0268 12.5072 34.0245C12.2416 34.0222 11.9792 33.967 11.7352 33.8622C11.4912 33.7574 11.2705 33.605 11.086 33.414L5.086 27.414C4.71106 27.0389 4.50043 26.5303 4.50043 26C4.50043 25.4697 4.71106 24.9611 5.086 24.586Z" fill="#FFF9F3"/>
<path fill-rule="evenodd" clip-rule="evenodd" d="M12.5 30C11.9696 30 11.4609 29.7893 11.0858 29.4142C10.7107 29.0391 10.5 28.5304 10.5 28V12C10.5 11.4696 10.7107 10.9609 11.0858 10.5858C11.4609 10.2107 11.9696 10 12.5 10C13.0304 10 13.5391 10.2107 13.9142 10.5858C14.2893 10.9609 14.5 11.4696 14.5 12V28C14.5 28.5304 14.2893 29.0391 13.9142 29.4142C13.5391 29.7893 13.0304 30 12.5 30Z" fill="#FFF9F3"/>
</svg>
