<svg width="101" height="100" viewBox="0 0 101 100" fill="none" xmlns="http://www.w3.org/2000/svg">
<path d="M50.5 6.25C26.125 6.25 6.75 25.625 6.75 50C6.75 74.375 26.125 93.75 50.5 93.75C74.875 93.75 94.25 74.375 94.25 50C94.25 25.625 74.875 6.25 50.5 6.25ZM50.5 87.5C29.875 87.5 13 70.625 13 50C13 29.375 29.875 12.5 50.5 12.5C71.125 12.5 88 29.375 88 50C88 70.625 71.125 87.5 50.5 87.5Z" fill="#FFF9F3"/>
<path d="M67.375 71.875L50.5 55L33.625 71.875L28.625 66.875L45.5 50L28.625 33.125L33.625 28.125L50.5 45L67.375 28.125L72.375 33.125L55.5 50L72.375 66.875L67.375 71.875Z" fill="#FFF9F3"/>
</svg>
