<svg width="43" height="36" viewBox="0 0 43 36" fill="none" xmlns="http://www.w3.org/2000/svg">
<path d="M41.5 2.03733C41.5 2.03733 37.8311 4.20481 35.7909 4.81915C34.6958 3.56008 33.2405 2.66768 31.6218 2.26264C30.0031 1.85762 28.2991 1.9595 26.7402 2.55451C25.1813 3.14953 23.8425 4.20897 22.9055 5.58953C21.9682 6.97011 21.4776 8.60521 21.5 10.2737V12.0919C18.3047 12.1747 15.1387 11.4661 12.2837 10.029C9.42862 8.59201 6.97331 6.4712 5.13636 3.85551C5.13636 3.85551 -2.13636 20.2192 14.2273 27.492C10.4828 30.0336 6.02211 31.3081 1.5 31.1283C17.8636 40.2192 37.8636 31.1283 37.8636 10.2192C37.862 9.7127 37.8133 9.2075 37.7182 8.71006C39.5738 6.88004 41.5 2.03733 41.5 2.03733Z" stroke="black" stroke-width="2.08809" stroke-linecap="round" stroke-linejoin="round"/>
</svg>
