<svg width="1441" height="266" viewBox="0 0 1441 266" fill="none" xmlns="http://www.w3.org/2000/svg">
<path d="M0 86.6186C58.1362 66.8982 113.5 53.8271 159.5 62.8271C279.5 99.3271 314 116.331 411.429 96.187C515.108 71.152 548.5 60.832 567 53.332C585.5 45.832 610.763 28.832 626.881 10.332C643 -8.16797 651.742 0.328968 686.242 22.829C720.742 45.329 775.22 77.0502 820.86 86.6186C866.5 96.187 996.5 60.8278 1058.03 60.9351C1119.56 61.0425 1144 70.832 1221 80.832C1296.87 90.6852 1437.91 29.2182 1440 1.2284V0C1440.03 0.401806 1440.03 0.811389 1440 1.2284V116V116.332V266H0V116.332V116V86.6186Z" fill="#DFAA49"/>
</svg>
