<svg width="110" height="78" viewBox="0 0 110 78" fill="none" xmlns="http://www.w3.org/2000/svg">
<path d="M67.2944 0.893641C65.0247 -0.284587 62.3728 -0.312024 60.0859 0.896385L30.5917 15.9892L30.5638 16.004C28.853 16.9181 27.5996 18.602 27.1454 20.5727C25.2871 20.0702 23.3021 20.2666 21.5351 21.2006L17.9365 23.0448L17.9095 23.0593C15.7637 24.2058 14.3048 26.5497 14.3048 29.2695V35.524L3.2719 41.2674L3.23798 41.2854C1.26054 42.3421 0.188823 44.2894 0.0228142 46.3115C0.00773918 46.4557 0 46.6023 0 46.7509V51.5328C0 53.734 1.10147 55.9745 3.23794 57.1162L40.4792 76.6813C43.7774 78.4384 47.6925 78.4396 50.9914 76.6848L106.727 47.6884L106.762 47.67C108.899 46.5282 110 44.2878 110 42.0866V37.3047C110 37.1565 109.992 37.0103 109.977 36.8661C109.811 34.8436 108.74 32.8959 106.762 31.8392L96.9056 26.6598V20.764C96.9056 18.112 95.4711 15.7132 93.3008 14.5538L67.3098 0.901872L67.2944 0.893641ZM58.3561 41.0675C58.3561 40.2044 58.2043 39.3675 57.924 38.5923L59.053 39.1861C59.7499 39.5388 60.1901 40.3228 60.1901 41.1459V51.8463C60.1901 52.787 59.2731 53.4142 58.4662 52.983L58.3561 52.9254V41.0675ZM14.3048 43.9288C14.3048 46.3946 15.632 48.559 17.5545 49.6353L17.5967 49.6588L44.6716 63.8705L44.7119 63.8908C46.5019 64.8018 48.5526 64.7692 50.3007 63.9202L50.341 63.9006L55.0029 61.4893L55.0448 61.467C56.6982 60.5835 57.8092 58.9918 58.2002 57.1868C59.7738 57.7179 61.4731 57.5846 62.9549 56.865L62.9894 56.8485L93.5671 41.178L93.5943 41.1635C95.6828 40.0476 96.9056 37.8017 96.9056 35.4233V31.0278L105.122 35.3449C106.736 36.2072 106.736 38.6373 105.122 39.4996L49.3698 68.5046C47.0957 69.7197 44.3815 69.7197 42.1074 68.5046L4.87829 48.9459C3.26442 48.0835 3.26442 45.6534 4.87829 44.7911L14.3048 39.8841V43.9288ZM61.6572 4.41931C62.941 3.75298 64.4081 3.75298 65.7286 4.41931L91.4405 17.9419C92.1741 18.3339 92.1741 19.4705 91.4405 19.8625L61.6205 35.1489C60.7036 35.6192 59.6766 35.6192 58.7963 35.1489L32.4608 21.3127C31.7272 20.9208 31.7272 19.7841 32.4608 19.3921L61.6572 4.41931ZM17.9727 33.0323C17.9727 32.2484 18.7429 31.6997 19.4398 32.0524L46.4355 46.2413C47.015 46.5349 47.4166 47.126 47.5358 47.79V58.8624C47.5358 58.9471 47.5432 59.0294 47.5575 59.1082C47.4353 59.9309 46.595 60.4373 45.8486 60.0383L19.2931 46.0845C18.4862 45.6926 17.9727 44.8303 17.9727 43.8896V33.0323ZM19.8066 26.4082L23.1077 24.7228C24.3915 24.0565 25.8586 24.0565 27.1424 24.7228L52.8543 38.2062C53.5879 38.5981 53.5879 39.7348 52.8543 40.1268L48.9663 42.165C48.0494 42.6353 47.0223 42.6353 46.142 42.165L19.8066 28.3288C19.073 27.9368 19.073 26.8002 19.8066 26.4082Z" fill="#FFBC41"/>
</svg>
