<svg width="148" height="84" viewBox="0 0 148 84" fill="none" xmlns="http://www.w3.org/2000/svg">
<g id="Group">
<path id="Vector" d="M139.682 56.6068L116.772 70.2314C117.964 76.9165 123.778 82.0002 130.804 82.0002C138.695 82.0002 145.09 75.6022 145.09 67.7145C145.09 63.2 142.953 59.224 139.682 56.6068Z" stroke="black" stroke-width="4" stroke-miterlimit="10" stroke-linecap="round" stroke-linejoin="round"/>
<path id="Vector_2" d="M90.8041 2C93.9598 2 96.5184 4.55857 96.5184 7.71429L87.9469 50.5714C87.9469 53.7271 85.3884 56.2857 82.2327 56.2857H65.0898C61.9341 56.2857 59.3755 53.7271 59.3755 50.5714L50.8041 7.71429C50.8041 4.55857 53.3626 2 56.5184 2H90.8041Z" stroke="black" stroke-width="4" stroke-miterlimit="10" stroke-linecap="round" stroke-linejoin="round"/>
<path id="Vector_3" d="M123.65 20.7891L97.3499 9.62824C96.9761 9.46938 96.591 9.35766 96.2058 9.27966L87.947 50.5714C87.947 53.0908 86.3064 55.2059 84.0407 55.9648C84.6156 56.6902 85.3521 57.2985 86.2618 57.6862L96.7807 62.1505C99.6881 63.384 103.042 62.0279 104.275 59.1234L126.68 28.2834C127.914 25.3788 126.558 22.0222 123.65 20.7891Z" stroke="black" stroke-width="4" stroke-miterlimit="10" stroke-linecap="round" stroke-linejoin="round"/>
<path id="Vector_4" d="M143.41 46.2241L126.965 30.3481C126.608 30.0021 126.212 29.7315 125.796 29.4998L104.275 59.1232C103.753 60.3564 102.835 61.2884 101.742 61.8855C101.368 63.7324 101.904 65.7247 103.36 67.1281L107.473 71.0987C109.744 73.2915 113.36 73.2275 115.553 70.9564L143.55 54.3044C145.743 52.0332 145.679 48.4172 143.41 46.2241Z" stroke="black" stroke-width="4" stroke-miterlimit="10" stroke-linecap="round" stroke-linejoin="round"/>
<path id="Vector_5" d="M7.64005 56.6068L30.5501 70.2314C29.3586 76.9165 23.544 82.0002 16.5183 82.0002C8.62776 82.0002 2.23262 75.6022 2.23262 67.7145C2.23262 63.2 4.36976 59.224 7.64005 56.6068Z" stroke="black" stroke-width="4" stroke-miterlimit="10" stroke-linecap="round" stroke-linejoin="round"/>
<path id="Vector_6" d="M23.6724 20.7891L49.9727 9.62824C50.3464 9.46938 50.7315 9.35766 51.1167 9.27966L59.3755 50.5714C59.3755 53.0908 61.0161 55.2059 63.2818 55.9648C62.707 56.6902 61.9704 57.2985 61.0607 57.6862L50.5418 62.1505C47.6344 63.384 44.2807 62.0279 43.0475 59.1234L20.6424 28.2834C19.409 25.3788 20.765 22.0222 23.6724 20.7891Z" stroke="black" stroke-width="4" stroke-miterlimit="10" stroke-linecap="round" stroke-linejoin="round"/>
<path id="Vector_7" d="M3.91237 46.2241L20.3578 30.3481C20.7149 30.0021 21.1109 29.7315 21.5266 29.4998L43.0475 59.1232C43.5692 60.3564 44.4872 61.2884 45.5809 61.8855C45.9547 63.7324 45.4189 65.7247 43.9626 67.1281L39.8498 71.0987C37.5787 73.2915 33.9627 73.2275 31.7695 70.9564L3.77294 54.3044C1.57979 52.0332 1.6438 48.4172 3.91237 46.2241Z" stroke="black" stroke-width="4" stroke-miterlimit="10" stroke-linecap="round" stroke-linejoin="round"/>
</g>
</svg>
