<svg width="48" height="48" viewBox="0 0 48 48" fill="none" xmlns="http://www.w3.org/2000/svg">
<g id="fxemoji:japanflag">
<path id="Vector" d="M46.3745 39.8577C31.4195 36.3759 16.4645 44.1203 1.50956 40.6385C0.675844 40.4452 0 39.5716 0 38.7386V9.26131C0 8.42712 0.675844 7.949 1.50947 8.14222C16.4645 11.624 31.4195 3.87959 46.3744 7.36137C47.208 7.55459 47.8838 8.42815 47.8838 9.26131V38.7386C47.8839 39.5727 47.2081 40.0509 46.3745 39.8577Z" fill="#E8E8E8"/>
<path id="Vector_2" d="M23.942 32.6296C28.7079 32.6296 32.5715 28.766 32.5715 24.0001C32.5715 19.2342 28.7079 15.3706 23.942 15.3706C19.176 15.3706 15.3125 19.2342 15.3125 24.0001C15.3125 28.766 19.176 32.6296 23.942 32.6296Z" fill="#FF473E"/>
</g>
</svg>
