<svg width="225" height="62" viewBox="0 0 225 62" fill="none" xmlns="http://www.w3.org/2000/svg">
<g clip-path="url(#clip0_536_4377)">
<path d="M10.7143 57.8572H49.2857M10.7143 36.4286H49.2857M57.5571 14.5715C57.1213 12.7741 56.2258 11.1209 54.9585 9.77395C53.6912 8.42697 52.0956 7.43248 50.3281 6.88798C48.5606 6.34348 46.682 6.26767 44.8764 6.66799C43.0708 7.0683 41.4003 7.931 40.0285 9.17148C39.2798 7.11309 37.9158 5.33495 36.1217 4.07845C34.3276 2.82195 32.1903 2.14795 30 2.14795C27.8096 2.14795 25.6723 2.82195 23.8782 4.07845C22.0841 5.33495 20.7201 7.11309 19.9714 9.17148C18.5997 7.931 16.9291 7.0683 15.1235 6.66799C13.318 6.26767 11.4393 6.34348 9.67186 6.88798C7.90439 7.43248 6.30878 8.42697 5.04148 9.77395C3.77417 11.1209 2.87869 12.7741 2.44283 14.5715C2.1023 15.9741 2.04752 17.4309 2.28175 18.8551C2.51598 20.2793 3.03443 21.6418 3.80622 22.8615C4.57801 24.0812 5.58736 25.133 6.77415 25.9545C7.96095 26.7759 9.30092 27.3501 10.7143 27.6429V42.8572C10.7143 43.9938 11.1658 45.0839 11.9695 45.8877C12.7732 46.6914 13.8633 47.1429 15 47.1429H45C46.1366 47.1429 47.2267 46.6914 48.0304 45.8877C48.8342 45.0839 49.2857 43.9938 49.2857 42.8572V27.6429C50.699 27.3501 52.039 26.7759 53.2258 25.9545C54.4126 25.133 55.4219 24.0812 56.1937 22.8615C56.9655 21.6418 57.484 20.2793 57.7182 18.8551C57.9524 17.4309 57.8976 15.9741 57.5571 14.5715Z" stroke="#FFBC41" stroke-width="2" stroke-linecap="round" stroke-linejoin="round"/>
<path d="M85 5.544C83.632 5.544 82.48 6.696 82.48 8.064V30.24C82.552 30.168 82.624 30.168 82.768 30.168H90.976C91.48 30.168 91.912 30.6 91.912 31.104C91.912 31.608 91.48 32.04 90.976 32.04H82.768C82.624 32.04 82.552 32.04 82.48 31.968V50.904C82.48 51.552 83.056 52.128 83.704 52.128H95.224C95.728 52.128 96.16 52.56 96.16 53.064C96.16 53.64 95.728 54 95.224 54H83.704C81.976 54 80.608 52.632 80.608 50.904V8.064C80.608 5.616 82.552 3.672 85 3.672H95.224C95.728 3.672 96.16 4.032 96.16 4.608C96.16 5.112 95.728 5.544 95.224 5.544H85ZM116.669 52.128C117.173 52.128 117.605 52.56 117.605 53.064C117.605 53.64 117.173 54 116.669 54H105.149C103.421 54 102.053 52.632 102.053 50.904V4.608C102.053 4.032 102.413 3.672 102.989 3.672C103.493 3.672 103.925 4.032 103.925 4.608V50.904C103.925 51.552 104.501 52.128 105.149 52.128H116.669ZM149.053 3.672C150.781 3.672 152.149 5.04 152.149 6.768V41.976C152.149 49.896 147.181 54 142.357 54C139.765 54 137.389 52.92 135.589 50.976C133.645 48.744 132.637 45.648 132.637 41.976V39.024C132.637 38.52 132.997 38.088 133.573 38.088C134.077 38.088 134.509 38.52 134.509 39.024V41.976C134.509 48.96 138.541 52.128 142.357 52.128C146.173 52.128 150.277 48.96 150.277 41.976V6.768C150.277 6.048 149.701 5.544 149.053 5.544H136.957C136.453 5.544 136.021 5.112 136.021 4.608C136.021 4.032 136.453 3.672 136.957 3.672H149.053ZM165.578 5.544C164.21 5.544 163.058 6.696 163.058 8.064V30.24C163.13 30.168 163.202 30.168 163.346 30.168H171.554C172.058 30.168 172.49 30.6 172.49 31.104C172.49 31.608 172.058 32.04 171.554 32.04H163.346C163.202 32.04 163.13 32.04 163.058 31.968V50.904C163.058 51.552 163.634 52.128 164.282 52.128H175.802C176.306 52.128 176.738 52.56 176.738 53.064C176.738 53.64 176.306 54 175.802 54H164.282C162.554 54 161.186 52.632 161.186 50.904V8.064C161.186 5.616 163.13 3.672 165.578 3.672H175.802C176.306 3.672 176.738 4.032 176.738 4.608C176.738 5.112 176.306 5.544 175.802 5.544H165.578ZM192.063 3.672C196.743 3.672 201.711 7.344 201.711 15.552V18.432C201.711 18.936 201.279 19.368 200.775 19.368C200.199 19.368 199.839 18.936 199.839 18.432V15.552C199.839 8.64 195.807 5.544 192.063 5.544C188.319 5.544 184.287 8.64 184.287 15.552V30.168H191.775C192.279 30.168 192.711 30.6 192.711 31.104C192.711 31.608 192.279 32.04 191.775 32.04H184.287V53.064C184.287 53.64 183.855 54 183.351 54C182.775 54 182.415 53.64 182.415 53.064V15.552C182.415 11.952 183.423 8.856 185.367 6.696C187.095 4.752 189.543 3.672 192.063 3.672ZM211.984 5.544C210.616 5.544 209.464 6.696 209.464 8.064V30.24C209.536 30.168 209.608 30.168 209.752 30.168H217.96C218.464 30.168 218.896 30.6 218.896 31.104C218.896 31.608 218.464 32.04 217.96 32.04H209.752C209.608 32.04 209.536 32.04 209.464 31.968V50.904C209.464 51.552 210.04 52.128 210.688 52.128H222.208C222.712 52.128 223.144 52.56 223.144 53.064C223.144 53.64 222.712 54 222.208 54H210.688C208.96 54 207.592 52.632 207.592 50.904V8.064C207.592 5.616 209.536 3.672 211.984 3.672H222.208C222.712 3.672 223.144 4.032 223.144 4.608C223.144 5.112 222.712 5.544 222.208 5.544H211.984Z" fill="#FFBC41"/>
</g>
<defs>
<clipPath id="clip0_536_4377">
<rect width="225" height="62" fill="white"/>
</clipPath>
</defs>
</svg>
