<svg width="110" height="110" viewBox="0 0 110 110" fill="none" xmlns="http://www.w3.org/2000/svg">
<path d="M43.1874 60.7031C42.0884 60.7031 40.9895 60.7031 40.0259 60.8438C33.9895 61.3906 27.8072 62.8958 22.8645 65.4948C18.0624 68.099 14.354 71.7969 14.078 76.5885C14.078 76.8594 14.078 77.1354 14.078 77.4062V85.625C13.9426 88.5 15.3176 91.099 17.6509 93.151C19.9843 95.2083 23.1405 96.849 26.7082 97.6719C30.1405 98.6302 33.8488 98.7656 37.4218 98.4948C43.0468 97.9427 46.6197 95.3438 50.7343 93.0156C52.6561 91.9219 54.4426 90.9635 56.5051 90.4167C57.1874 90.1406 57.7395 89.4583 57.4634 88.6354C57.1874 87.8125 56.5051 87.401 55.677 87.6771C53.3436 88.3594 51.2863 89.4583 49.2238 90.5521C44.9686 93.0156 41.9478 95.2083 37.0051 95.6146C33.8488 95.8906 30.4165 95.7552 27.2603 94.9323C23.9634 94.1094 21.2186 92.6042 19.2968 90.9635C17.3749 89.3177 16.6874 87.5417 16.6874 85.4844V83.4323C16.9634 83.7083 17.0988 83.8438 17.3749 84.1146C19.7082 86.1719 22.8645 87.8125 26.4374 88.6354C29.8697 89.4583 33.5728 89.7292 37.1457 89.4583C42.7759 88.9063 46.3436 86.3073 50.4634 83.9792C52.3853 82.8854 54.3072 81.9271 56.3645 81.3802C57.1874 81.1042 57.5988 80.4219 57.328 79.599C57.052 78.9167 56.3645 78.3646 55.5415 78.6406C53.2082 79.3229 51.1457 80.4219 49.0884 81.5156C44.8332 83.9792 41.8124 86.1719 36.8697 86.5833C33.7134 86.8542 30.2811 86.7188 27.1249 85.8958C23.828 85.0729 21.0832 83.5677 19.1613 81.9271C17.3749 80.2813 16.4165 78.5052 16.552 76.5885C16.6874 73.1615 19.4322 70.151 23.828 67.8229C28.2186 65.4948 34.1249 63.9896 39.7551 63.4427C47.578 62.7604 56.5051 64.5365 62.5415 67.5521C63.229 67.9635 64.052 67.6875 64.4634 66.8646C64.8749 66.1823 64.4634 65.3594 63.7811 64.9479C58.5624 62.4844 50.7343 60.7031 43.1874 60.7031Z" fill="#FFBC41"/>
<path d="M31.5156 73.5729C32.8906 73.5729 34.125 73.9843 34.8125 74.3958C35.6354 74.8073 35.7708 75.3541 35.7708 75.7656C35.7708 76.177 35.4948 76.5885 34.8125 77.1354C33.9896 77.5468 32.8906 77.9583 31.5156 77.9583C30.1406 77.9583 28.9063 77.5468 28.2188 77.1354C27.3958 76.7239 27.2604 76.177 27.2604 75.7656C27.2604 75.3541 27.5365 74.9427 28.2188 74.3958C28.9063 73.9843 30.1406 73.5729 31.5156 73.5729ZM31.5156 70.6979C29.7292 70.6979 27.9479 71.1093 26.7083 71.9323C25.3385 72.7552 24.375 74.125 24.375 75.6302C24.375 77.2708 25.474 78.5052 26.7083 79.3229C28.0833 80.1458 29.7292 80.5573 31.5156 80.5573C33.3021 80.5573 35.0833 80.1458 36.3229 79.3229C37.6927 78.5052 38.6562 77.1354 38.6562 75.6302C38.6562 73.9843 37.5573 72.7552 36.3229 71.9323C34.9479 71.2448 33.3021 70.6979 31.5156 70.6979Z" fill="#FFBC41"/>
<path fill-rule="evenodd" clip-rule="evenodd" d="M89.8646 57.9688C90.5521 57.9688 91.2344 58.5156 91.2344 59.3385C91.2344 60.1563 90.6875 60.7031 89.8646 60.7031C89.1771 60.7031 88.4896 60.1563 88.4896 59.3385C88.4896 58.5156 89.1771 57.9688 89.8646 57.9688ZM89.8646 55.0938C87.5312 55.0938 85.6094 57.0104 85.6094 59.3385C85.6094 61.6615 87.5312 63.5781 89.8646 63.5781C92.1979 63.5781 94.1198 61.6615 94.1198 59.3385C93.9844 57.0104 92.1979 55.0938 89.8646 55.0938Z" fill="#FFBC41"/>
<path fill-rule="evenodd" clip-rule="evenodd" d="M81.078 48.9323C80.3905 48.5209 79.5676 48.6563 79.1561 49.3438C75.1718 55.6407 74.2134 63.8542 77.2343 71.1094C77.5103 71.7969 78.3332 72.2032 79.1561 71.9323C79.8436 71.6563 80.2551 70.8386 79.9791 70.1511C77.3697 63.7188 78.1926 56.4636 81.7655 50.9844C81.9009 50.1615 81.7655 49.3438 81.078 48.9323Z" fill="#FFBC41"/>
<mask id="mask0_510_2019" style="mask-type:luminance" maskUnits="userSpaceOnUse" x="4" y="30" width="100" height="50">
<path d="M4.83325 30.6666H103.87V80H4.83325V30.6666Z" fill="white"/>
</mask>
<g mask="url(#mask0_510_2019)">
<path fill-rule="evenodd" clip-rule="evenodd" d="M60.8957 36.0624C63.6405 37.2916 67.0728 39.4843 70.229 42.3593C68.3071 42.0833 66.2498 42.0833 64.1926 42.0833C62.953 42.0833 61.8592 42.0833 60.6196 42.2239C60.8957 40.578 60.8957 38.9374 60.8957 37.4322C60.8957 36.8853 60.8957 36.6093 60.8957 36.0624ZM59.1092 31.8176C58.2863 31.8176 57.7394 32.4999 57.7394 33.3228C57.7394 34.0103 58.0103 35.651 58.0103 37.4322C58.0103 39.0728 58.0103 40.9895 57.5988 42.4947C45.3801 44.276 33.9894 50.7135 26.8488 56.1874C25.4738 57.2812 25.0623 57.2812 24.7863 57.2812C24.5155 57.2812 23.828 56.7343 22.5936 55.6405L13.1196 47.151C11.3332 45.5103 8.86443 45.0989 7.07797 46.0572C5.29151 47.0155 4.46859 49.4791 5.56755 51.9426C7.90088 57.5572 9.96338 64.9478 7.07797 73.4374C6.53109 75.0833 6.66651 76.8593 7.62484 77.9583C8.58838 79.052 10.2342 79.4635 11.7446 79.1874C12.5675 79.052 12.9842 78.2291 12.8436 77.5468C12.7082 76.7239 11.8853 76.3124 11.0571 76.4478C10.3748 76.5885 9.96338 76.4478 9.68734 76.177C9.4113 75.901 9.27588 75.3541 9.68734 74.3958C12.9842 64.9478 10.6457 56.7343 8.17692 50.8489C7.48943 49.203 7.90088 48.7916 8.45297 48.5208C8.99984 48.2447 10.0988 48.2447 11.1978 49.203L20.6717 57.6926C21.9061 58.7864 22.729 59.7447 24.2394 60.0208C25.7498 60.2968 27.1248 59.6093 28.6353 58.5155C36.7342 52.3541 50.8748 44.9583 64.328 44.9583C79.979 44.9583 93.0207 52.078 98.7863 58.651C100.021 60.1562 100.708 61.2551 100.849 62.2135C100.984 63.1718 100.849 64.1301 100.021 65.6353C98.2394 69.0572 95.354 71.7968 91.9217 74.1249C91.2342 74.5312 91.0988 75.4895 91.5103 76.0416C91.9217 76.7239 92.8853 76.8593 93.4321 76.4478C97.1405 73.9843 100.437 70.8385 102.495 66.8645C103.453 65.0885 103.87 63.3072 103.594 61.6614C103.318 59.8853 102.359 58.3801 100.849 56.8697C95.9061 51.1197 86.5676 45.5103 75.0363 43.1822C70.5051 37.9791 64.0519 33.1874 59.6613 31.953C59.5207 31.8176 59.2498 31.8176 59.1092 31.8176Z" fill="#FFBC41"/>
</g>
<path fill-rule="evenodd" clip-rule="evenodd" d="M68.9947 70.5625C70.5051 70.5625 72.5676 71.9323 74.078 74.2604C75.7239 76.5885 76.8228 80.0104 76.8228 83.2969C76.8228 88.3594 73.2499 91.9219 68.9947 91.9219C64.7395 91.9219 61.1718 88.3594 61.1718 83.2969C61.1718 80.0104 62.2708 76.724 63.9166 74.2604C65.5624 71.9323 67.4843 70.5625 68.9947 70.5625ZM68.9947 67.6875C65.9739 67.6875 63.3645 69.8802 61.5833 72.7552C59.6614 75.6302 58.427 79.3229 58.427 83.2969C58.427 89.7292 63.2291 94.6562 69.1353 94.6562C75.0364 94.6562 79.8437 89.5938 79.8437 83.2969C79.8437 79.3229 78.6041 75.6302 76.6822 72.7552C74.6249 69.8802 72.0155 67.6875 68.9947 67.6875Z" fill="#FFBC41"/>
<path fill-rule="evenodd" clip-rule="evenodd" d="M81.0781 73.5729C80.2552 73.4375 79.5677 73.9844 79.4323 74.8073C79.2917 75.6302 79.8437 76.3125 80.6667 76.4479C83.5469 76.8594 86.4323 77.9584 88.3542 79.4636C90.276 80.9688 91.375 82.75 91.375 84.1146C91.375 85.625 90 87.6771 87.6667 89.1823C85.3333 90.8229 81.901 91.9219 78.6042 91.9219C77.7813 91.9219 77.2344 92.6042 77.2344 93.2917C77.2344 94.1094 77.9219 94.6563 78.6042 94.6563C82.5885 94.6563 86.2969 93.4271 89.1771 91.5104C92.0625 89.5938 94.1198 86.9896 94.1198 84.1146C94.1198 81.5156 92.3333 79.0521 90 77.2709C87.6667 75.3542 84.5104 73.9844 81.0781 73.5729Z" fill="#FFBC41"/>
<mask id="mask1_510_2019" style="mask-type:luminance" maskUnits="userSpaceOnUse" x="23" y="9" width="30" height="47">
<path d="M23.5 9.81775H52.8333V56H23.5V9.81775Z" fill="white"/>
</mask>
<g mask="url(#mask1_510_2019)">
<path d="M31.1041 21.0001H45.1093V25.5209C45.1093 29.3542 46.6197 31.2709 47.7135 32.9115C48.1301 33.599 48.5416 34.2813 48.953 35.2397H27.2603C27.6718 34.2813 28.0833 33.599 28.4947 32.9115C29.5937 31.2709 31.1041 29.3542 31.1041 25.5209V21.0001ZM30.4166 13.198H45.6562C46.4791 13.198 47.0312 13.7449 47.0312 14.5678V16.6199C47.0312 17.3074 46.6197 17.8542 46.0676 17.9897C45.9322 17.9897 45.7916 17.9897 45.6562 17.9897H30.4166C29.5937 17.9897 29.0468 17.4428 29.0468 16.6199V14.5678C29.0468 13.8803 29.7291 13.198 30.4166 13.198ZM30.4166 10.323C28.0833 10.323 26.1614 12.2397 26.1614 14.5678V16.6199C26.1614 18.1251 26.9843 19.4949 28.2187 20.3178V25.3803C28.2187 28.5313 27.2603 29.3542 26.1614 31.2709C24.927 33.1876 23.552 35.7865 23.552 41.1251V54.2709C23.552 55.0938 24.2395 55.6407 24.927 55.6407C25.7499 55.6407 26.2968 54.9532 26.2968 54.2709V41.1251C26.2968 39.8959 26.2968 38.9376 26.4374 37.9792H49.3645C49.4999 38.8022 49.4999 39.8959 49.4999 41.1251C49.4999 41.948 50.1874 42.4949 50.8749 42.4949C51.6978 42.4949 52.2447 41.8126 52.2447 41.1251C52.2447 35.7865 50.8749 33.1876 49.6405 31.2709C48.401 29.3542 47.578 28.5313 47.578 25.3803V20.3178C48.8124 19.6303 49.6405 18.2657 49.6405 16.6199V14.5678C49.6405 12.2397 47.7135 10.323 45.3801 10.323H30.4166Z" fill="#FFBC41"/>
</g>
</svg>
