<svg width="40" height="40" viewBox="0 0 40 40" fill="none" xmlns="http://www.w3.org/2000/svg">
<g id="Search Icon">
<path id="Vector" d="M38.6332 32.0048L31.8763 25.2478L26.6789 23.1006C28.4095 20.6396 29.3366 17.7037 29.3333 14.6952C29.3333 6.60797 22.7539 0.0285645 14.6666 0.0285645C6.5794 0.0285645 0 6.60797 0 14.6952C0 22.7824 6.5794 29.3618 14.6666 29.3618C17.7013 29.3653 20.6615 28.4221 23.1349 26.6637L25.2765 31.8471L32.0333 38.6044C32.4666 39.0378 32.981 39.3815 33.5472 39.6161C34.1134 39.8506 34.7203 39.9713 35.3331 39.9714C35.9459 39.9714 36.5528 39.8507 37.119 39.6162C37.6852 39.3817 38.1997 39.0379 38.633 38.6046C39.0664 38.1713 39.4102 37.6568 39.6447 37.0906C39.8792 36.5244 40 35.9176 40 35.3048C40 34.6919 39.8793 34.0851 39.6448 33.5189C39.4103 32.9527 39.0666 32.4382 38.6332 32.0048ZM2.66666 14.6952C2.66666 8.07855 8.04998 2.69522 14.6666 2.69522C21.2833 2.69522 26.6666 8.07855 26.6666 14.6952C26.6666 21.3118 21.2833 26.6952 14.6666 26.6952C8.04998 26.6952 2.66666 21.3118 2.66666 14.6952ZM36.7475 36.7188C36.3721 37.0933 35.8635 37.3037 35.3333 37.3037C34.803 37.3037 34.2944 37.0933 33.919 36.7188L27.538 30.3378L25.5469 25.5183L30.3666 27.5094L36.7477 33.8904C37.1221 34.2658 37.3324 34.7744 37.3324 35.3046C37.3324 35.8349 37.122 36.3435 36.7475 36.7188Z" fill="#FFBC41"/>
</g>
</svg>
