<svg width="104" height="104" viewBox="0 0 104 104" fill="none" xmlns="http://www.w3.org/2000/svg">
<path d="M52 51.7241H2C2 78.7566 33.3432 102 33.3432 102H52" stroke="black" stroke-width="2.79053" stroke-linecap="round" stroke-linejoin="round"/>
<path d="M16.552 57.9004C16.552 77.825 37.1677 92.5262 37.1677 92.5262" stroke="black" stroke-width="2.79053" stroke-linecap="round" stroke-linejoin="round"/>
<path d="M52 51.7241H102C102 78.7566 70.6568 102 70.6568 102H52" stroke="black" stroke-width="2.79053" stroke-linecap="round" stroke-linejoin="round"/>
<path d="M25.2274 51.7242C21.5893 36.9424 45.9141 26.7806 67.7423 23.6422L69.8752 19.3765L78.4806 30.7286L73.7582 31.5637C71.4496 39.8027 59.8806 51.7242 59.8806 51.7242" stroke="black" stroke-width="2.79053" stroke-linecap="round" stroke-linejoin="round"/>
<path d="M29.052 51.7243C29.8312 44.1134 37.9623 35.5503 68.9774 25.2686" stroke="black" stroke-width="2.79053" stroke-linecap="round" stroke-linejoin="round"/>
<path d="M69.7798 26.3242C58.0493 32.7025 44.3744 40.0304 34.7896 51.7243" stroke="black" stroke-width="2.79053" stroke-linecap="round" stroke-linejoin="round"/>
<path d="M72.0684 29.3384C59.8808 47.3079 52 51.7244 52 51.7244" stroke="black" stroke-width="2.79053" stroke-linecap="round" stroke-linejoin="round"/>
<path d="M45.2559 51.7245C52.6061 47.0613 70.9037 27.8052 70.9037 27.8052" stroke="black" stroke-width="2.79053" stroke-linecap="round" stroke-linejoin="round"/>
<path d="M76.5319 28.2134L98.5624 8.83641C100.083 7.4985 100.317 5.07583 99.0846 3.42522C97.8519 1.77432 95.6197 1.52058 94.0989 2.85849L72.0684 22.2355" stroke="black" stroke-width="2.79053" stroke-linecap="round" stroke-linejoin="round"/>
<path d="M67.7424 23.6421L73.7581 31.5637" stroke="black" stroke-width="2.79053" stroke-linecap="round" stroke-linejoin="round"/>
</svg>
