<svg width="100" height="100" viewBox="0 0 100 100" fill="none" xmlns="http://www.w3.org/2000/svg">
<path d="M93.3595 24.5219C91.6251 20.4281 85.1376 14.0625 74.8173 14.0625C73.572 14.0625 72.2923 14.1578 71.011 14.3453C68.4251 14.7234 66.0735 15.9125 64.186 16.8672C63.1735 17.3797 61.9126 18.0172 61.461 18.0172C47.7344 17.4406 44.8766 20.4453 42.3079 23.0828C41.1157 24.3078 40.0876 25.3641 37.8532 26.0188C35.7423 26.6359 25.0298 30.1266 21.336 38.3922C21.1579 38.7922 20.2048 39.4984 19.2844 40.1797C17.6173 41.4141 15.3673 43.0906 13.1376 45.8578C6.20788 52.5766 1.38757 67.7828 3.71726 76.8719C4.8782 81.4094 7.67038 84.0828 11.7954 84.6109C18.8954 85.5141 24.9001 85.9375 30.6938 85.9375C34.5716 85.9355 38.4469 85.7457 42.3063 85.3688C44.3704 85.1703 46.1876 84.5531 47.7204 83.5484C51.1282 82.6969 54.172 79.4531 58.2141 75.125C62.1563 70.9047 67.0626 65.6516 74.0204 60.8437C75.211 60.0219 76.3766 59.2266 77.5126 58.4531C92.1188 48.4922 102.677 41.2938 93.3595 24.5219ZM24.086 39.4781C24.4063 39.3531 24.7829 39.1844 25.2251 38.9641C31.786 37.6766 37.2829 33.3594 48.911 40.2484C57.2704 47.1656 58.9001 52.8859 59.2735 48.5828C60.5688 42.6578 49.0735 32.2906 38.3438 33.1359C33.5845 32.7531 28.9876 34.6234 26.0157 36.4719C30.1016 31.5766 37.0938 29.3016 38.6798 28.8391C40.3079 28.3625 41.4766 27.6953 42.4219 26.9719C42.7219 26.8812 43.0891 26.7422 43.6016 26.4844C48.5563 25.5094 52.7126 22.2516 61.4938 27.4547C67.8079 32.6781 69.0376 37.0016 69.322 33.7516C70.2985 29.2734 61.6141 21.4437 53.5141 22.0797C50.7813 21.8594 48.1313 22.6297 46.0266 23.6219C47.936 22.0844 50.8345 20.8844 58.1391 20.8844C59.1282 20.8844 60.1907 20.9078 61.4641 20.9578C62.6173 20.9578 63.9001 20.3094 65.5219 19.4891L65.6048 19.4484C68.922 18.9672 72.1173 17.6125 77.5985 21.7344C81.7845 26.0453 82.3548 29.2828 82.8032 26.9469C83.8485 23.7813 78.1407 17.3875 72.2157 17.1813L72.1657 17.175C73.0595 17.0719 73.9516 17.0031 74.8188 17.0031C84.1188 17.0031 89.522 22.8922 90.6829 25.7437C94.8798 36.0547 90.5548 38.4844 78.9954 44.9766C71.972 48.9219 62.6079 54.1922 52.0751 63.4313C51.1437 60.065 49.7541 56.8426 47.9454 53.8547C43.0157 45.6859 34.7985 40.6125 26.5032 40.6125C25.3282 40.6125 24.1719 40.725 23.0329 40.925C23.4594 40.5062 23.8141 40.0781 24.0313 39.5906C24.0454 39.5484 24.0688 39.5156 24.086 39.4781ZM6.77038 76.0953C4.59226 67.5969 9.98601 51.7781 16.7188 46.9141C19.586 44.8422 22.9688 43.75 26.5001 43.75C33.6938 43.75 40.8782 48.2406 45.2407 55.4688C49.9673 63.3016 51.386 72.4937 48.6923 77.8266C47.3626 80.4578 45.1126 81.9438 42.0016 82.2438C32.2485 83.1797 23.7532 82.9688 12.1938 81.4953C9.38288 81.1359 7.60945 79.3703 6.77038 76.0953ZM75.8485 56.0266C74.7079 56.8047 73.5376 57.6047 72.3423 58.4281C65.122 63.4156 60.0954 68.7984 56.0563 73.1219C54.8695 74.4103 53.6562 75.6741 52.4173 76.9125C53.3079 73.9516 53.4173 70.4344 52.8001 66.725C63.6048 57.0109 73.2673 51.5625 80.4407 47.5328C86.5923 44.0781 91.397 41.3594 93.6876 37.5625C92.6626 44.5297 85.5813 49.3891 75.8485 56.0266Z" fill="#242323"/>
</svg>
