<svg width="41" height="41" viewBox="0 0 41 41" fill="none" xmlns="http://www.w3.org/2000/svg">
<path d="M40.5 20.4546C40.5 9.40584 31.5413 0.45459 20.5 0.45459C9.45125 0.45459 0.5 9.40584 0.5 20.4546C0.5 30.4346 7.81125 38.7096 17.375 40.2083V26.2371H12.2963V20.4558H17.375V16.0471C17.375 11.0358 20.3563 8.26834 24.9263 8.26834C27.115 8.26834 29.4062 8.65834 29.4062 8.65834V13.5796H26.88C24.4 13.5796 23.625 15.1233 23.625 16.7046V20.4546H29.1713L28.28 26.2358H23.625V40.2071C33.1812 38.7083 40.5 30.4333 40.5 20.4533V20.4546Z" fill="black"/>
</svg>
