<svg width="60" height="64" viewBox="0 0 60 64" fill="none" xmlns="http://www.w3.org/2000/svg">
<path d="M53.0551 32.2096H60" stroke="#FFBC41" stroke-width="3"/>
<path d="M0 32.2096H38.2525" stroke="#FFBC41" stroke-width="3"/>
<path d="M23.2648 10.5328H60" stroke="#FFBC41" stroke-width="3"/>
<path d="M0 10.5328H8.48684" stroke="#FFBC41" stroke-width="3"/>
<path d="M33.7006 53.8864H60" stroke="#FFBC41" stroke-width="3"/>
<path d="M0 53.8864H18.898" stroke="#FFBC41" stroke-width="3"/>
<path d="M15.8758 18.2272C19.9635 18.2272 23.2771 14.5946 23.2771 10.1136C23.2771 5.63258 19.9635 2 15.8758 2C11.7882 2 8.47451 5.63258 8.47451 10.1136C8.47451 14.5946 11.7882 18.2272 15.8758 18.2272Z" stroke="#FFBC41" stroke-width="3"/>
<path d="M45.6538 40.3231C49.7414 40.3231 53.0551 36.6905 53.0551 32.2095C53.0551 27.7285 49.7414 24.0959 45.6538 24.0959C41.5661 24.0959 38.2525 27.7285 38.2525 32.2095C38.2525 36.6905 41.5661 40.3231 45.6538 40.3231Z" stroke="#FFBC41" stroke-width="3"/>
<path d="M26.2993 62C30.387 62 33.7006 58.3674 33.7006 53.8864C33.7006 49.4054 30.387 45.7728 26.2993 45.7728C22.2117 45.7728 18.898 49.4054 18.898 53.8864C18.898 58.3674 22.2117 62 26.2993 62Z" stroke="#FFBC41" stroke-width="3"/>
</svg>
