<svg width="41" height="41" viewBox="0 0 41 41" fill="none" xmlns="http://www.w3.org/2000/svg">
<path fill-rule="evenodd" clip-rule="evenodd" d="M12.2544 0.451543C14.3878 0.353761 15.0678 0.331543 20.5 0.331543C25.9333 0.331543 26.6122 0.35487 28.7444 0.451543C30.8744 0.548216 32.3289 0.887107 33.6011 1.38154C34.9355 1.88392 36.1442 2.67107 37.1433 3.68822C38.1605 4.68718 38.9478 5.89602 39.45 7.23043C39.9444 8.50265 40.2822 9.95711 40.38 12.086C40.4778 14.2193 40.5 14.8993 40.5 20.3315C40.5 25.7637 40.4767 26.4437 40.38 28.5772C40.2833 30.7059 39.9444 32.1605 39.45 33.4326C38.9389 34.7472 38.2544 35.8637 37.1433 36.9748C36.1444 37.9921 34.9355 38.7794 33.6011 39.2815C32.3289 39.7759 30.8744 40.1137 28.7456 40.2115C26.6122 40.3094 25.9322 40.3315 20.5 40.3315C15.0678 40.3315 14.3878 40.3083 12.2544 40.2115C10.1256 40.1148 8.67111 39.7759 7.39889 39.2815C6.08444 38.7705 4.96778 38.0859 3.85667 36.9748C2.83935 35.9759 2.05215 34.767 1.55 33.4326C1.05556 32.1605 0.717782 30.7059 0.62 28.5772C0.522218 26.4437 0.5 25.7648 0.5 20.3315C0.5 14.8982 0.523327 14.2193 0.62 12.0871C0.716673 9.95711 1.05556 8.50265 1.55 7.23043C2.05238 5.89611 2.83953 4.68732 3.85667 3.68822C4.85562 2.67089 6.06446 1.88369 7.39889 1.38154C8.67111 0.887107 10.1256 0.549325 12.2544 0.451543ZM28.5822 4.05154C26.4733 3.95598 25.84 3.93487 20.5 3.93487C15.16 3.93487 14.5267 3.95598 12.4178 4.05154C10.4678 4.14043 9.40889 4.46598 8.70444 4.74043C7.77111 5.10265 7.10444 5.53598 6.40444 6.23598C5.70556 6.93598 5.27111 7.60265 4.90889 8.53598C4.63444 9.24043 4.30889 10.2993 4.22 12.2493C4.12444 14.3582 4.10333 14.9915 4.10333 20.3315C4.10333 25.6715 4.12444 26.3048 4.22 28.4137C4.30889 30.3637 4.63444 31.4226 4.90889 32.1272C5.22929 32.9959 5.74035 33.7817 6.40444 34.4272C7.04971 35.0912 7.83566 35.6023 8.70444 35.9226C9.40889 36.1972 10.4678 36.5226 12.4178 36.6115C14.5267 36.7072 15.1589 36.7283 20.5 36.7283C25.8411 36.7283 26.4733 36.7072 28.5822 36.6115C30.5322 36.5226 31.5911 36.1972 32.2956 35.9226C33.2289 35.5605 33.8956 35.1272 34.5956 34.4272C35.2596 33.7819 35.7707 32.9959 36.0911 32.1272C36.3656 31.4226 36.6911 30.3637 36.78 28.4137C36.8756 26.3048 36.8967 25.6715 36.8967 20.3315C36.8967 14.9915 36.8756 14.3582 36.78 12.2493C36.6911 10.2993 36.3656 9.24043 36.0911 8.53598C35.7289 7.60265 35.2956 6.93598 34.5956 6.23598C33.8956 5.53711 33.2289 5.10265 32.2956 4.74043C31.5911 4.46598 30.5322 4.14043 28.5822 4.05154ZM17.9464 26.4968C18.756 26.8323 19.6236 27.0048 20.5 27.0048C22.27 27.0048 23.9673 26.3017 25.2187 25.0503C26.4704 23.7988 27.1735 22.1014 27.1735 20.3315C27.1735 18.5617 26.4704 16.8643 25.2187 15.6128C23.9673 14.3613 22.27 13.6582 20.5 13.6582C19.6236 13.6582 18.756 13.8308 17.9464 14.1662C17.1365 14.5015 16.401 14.9931 15.7813 15.6128C15.1616 16.2325 14.6701 16.9681 14.3347 17.7777C13.9993 18.5874 13.8267 19.4552 13.8267 20.3315C13.8267 21.2079 13.9993 22.0757 14.3347 22.8854C14.6701 23.695 15.1616 24.4306 15.7813 25.0503C16.401 25.6699 17.1365 26.1615 17.9464 26.4968ZM13.231 13.0625C15.1589 11.1346 17.7736 10.0515 20.5 10.0515C23.2265 10.0515 25.8413 11.1346 27.7691 13.0625C29.6969 14.9903 30.78 17.6052 30.78 20.3315C30.78 23.0579 29.6969 25.6726 27.7691 27.6006C25.8413 29.5285 23.2265 30.6115 20.5 30.6115C17.7736 30.6115 15.1589 29.5285 13.231 27.6006C11.3031 25.6726 10.2201 23.0579 10.2201 20.3315C10.2201 17.6052 11.3031 14.9903 13.231 13.0625ZM33.0595 11.5831C33.5151 11.1274 33.7711 10.5093 33.7711 9.86487C33.7711 9.22038 33.5151 8.60231 33.0595 8.1466C32.6036 7.69089 31.9856 7.43487 31.3411 7.43487C30.6967 7.43487 30.0785 7.69089 29.6229 8.1466C29.1671 8.60231 28.9111 9.22038 28.9111 9.86487C28.9111 10.5093 29.1671 11.1274 29.6229 11.5831C30.0785 12.0389 30.6967 12.2949 31.3411 12.2949C31.9856 12.2949 32.6036 12.0389 33.0595 11.5831Z" fill="black"/>
</svg>
