<svg width="60" height="60" viewBox="0 0 60 60" fill="none" xmlns="http://www.w3.org/2000/svg">
<path d="M10.7143 57.8572H49.2857M10.7143 36.4286H49.2857M57.5571 14.5715C57.1213 12.7741 56.2258 11.1209 54.9585 9.77395C53.6912 8.42697 52.0956 7.43248 50.3281 6.88798C48.5606 6.34348 46.682 6.26767 44.8764 6.66799C43.0708 7.0683 41.4003 7.931 40.0285 9.17148C39.2798 7.11309 37.9158 5.33495 36.1217 4.07845C34.3276 2.82195 32.1903 2.14795 30 2.14795C27.8096 2.14795 25.6723 2.82195 23.8782 4.07845C22.0841 5.33495 20.7201 7.11309 19.9714 9.17148C18.5997 7.931 16.9291 7.0683 15.1235 6.66799C13.318 6.26767 11.4393 6.34348 9.67186 6.88798C7.90439 7.43248 6.30878 8.42697 5.04148 9.77395C3.77417 11.1209 2.87869 12.7741 2.44283 14.5715C2.1023 15.9741 2.04752 17.4309 2.28175 18.8551C2.51598 20.2793 3.03443 21.6418 3.80622 22.8615C4.57801 24.0812 5.58736 25.133 6.77415 25.9545C7.96095 26.7759 9.30092 27.3501 10.7143 27.6429V42.8572C10.7143 43.9938 11.1658 45.0839 11.9695 45.8877C12.7732 46.6914 13.8633 47.1429 15 47.1429H45C46.1366 47.1429 47.2267 46.6914 48.0304 45.8877C48.8342 45.0839 49.2857 43.9938 49.2857 42.8572V27.6429C50.699 27.3501 52.039 26.7759 53.2258 25.9545C54.4126 25.133 55.4219 24.0812 56.1937 22.8615C56.9655 21.6418 57.484 20.2793 57.7182 18.8551C57.9524 17.4309 57.8976 15.9741 57.5571 14.5715Z" stroke="black" stroke-width="2" stroke-linecap="round" stroke-linejoin="round"/>
</svg>
