<svg width="41" height="41" viewBox="0 0 41 41" fill="none" xmlns="http://www.w3.org/2000/svg">
<path d="M20.5288 0.283203C9.46686 0.283203 0.5 9.25006 0.5 20.312C0.5 28.7965 5.78037 36.0404 13.2323 38.9575C13.0556 37.3711 12.899 34.9439 13.2974 33.2147C13.6633 31.6484 15.6469 23.2617 15.6469 23.2617C15.6469 23.2617 15.0467 22.0538 15.0467 20.2857C15.0467 17.5052 16.6657 15.4239 18.6693 15.4239C20.3797 15.4239 21.208 16.7032 21.208 18.2432C21.208 19.9599 20.1178 22.5312 19.5502 24.9132C19.074 26.9043 20.5489 28.5283 22.5137 28.5283C26.0711 28.5283 28.8115 24.7754 28.8115 19.3584C28.8115 14.5806 25.3656 11.2261 20.4449 11.2261C14.7472 11.2261 11.4053 15.5078 11.4053 19.9123C11.4053 21.6352 12.0644 23.4885 12.894 24.4872C13.0569 24.6889 13.0769 24.8656 13.0305 25.0686C12.8802 25.6951 12.5406 27.0723 12.4754 27.3467C12.384 27.7188 12.1885 27.7965 11.8038 27.6211C9.31023 26.4658 7.73764 22.8106 7.73764 19.8609C7.73764 13.5505 12.3326 7.74138 20.9737 7.74138C27.9181 7.74138 33.3213 12.701 33.3213 19.3058C33.3213 26.2177 28.9681 31.7775 22.9121 31.7775C20.8822 31.7775 18.9763 30.7262 18.3047 29.4731L17.0516 34.231C16.6017 35.9739 15.3738 38.1593 14.5455 39.485C16.4251 40.0589 18.4024 40.3797 20.4774 40.3797C31.5206 40.3797 40.5 31.4191 40.5 20.3509C40.5 9.2889 31.5194 0.328313 20.4774 0.328313L20.5288 0.283203Z" fill="black"/>
</svg>
