<svg width="100" height="100" viewBox="0 0 100 100" fill="none" xmlns="http://www.w3.org/2000/svg">
<path d="M40.625 89.5832C34.1445 89.5832 28.4487 87.3998 23.5375 83.0332C18.6264 78.6665 15.6417 73.3054 14.5834 66.9498C14.5 66.2832 14.6473 65.7221 15.025 65.2665C15.4028 64.8109 15.95 64.5832 16.6667 64.5832H62.3625L67.1875 19.6165C67.482 17.0248 68.6056 14.8443 70.5584 13.0748C72.5112 11.3026 74.825 10.4165 77.5 10.4165C80.3834 10.4165 82.8417 11.4304 84.8751 13.4582C86.9028 15.4915 87.9167 17.9498 87.9167 20.8332V22.1165C87.9167 22.7082 87.7181 23.2026 87.3209 23.5998C86.9209 23.9998 86.4251 24.1998 85.8334 24.1998C85.2417 24.1998 84.7459 23.9998 84.3459 23.5998C83.9487 23.2026 83.7501 22.7082 83.7501 22.1165V20.8332C83.7501 19.1193 83.1376 17.6484 81.9126 16.4207C80.6848 15.1957 79.2139 14.5832 77.5 14.5832C75.8556 14.5832 74.4375 15.1221 73.2459 16.1998C72.0542 17.2748 71.3889 18.5998 71.25 20.1748L66.4584 65.4873C65.7473 72.3151 62.9528 78.0373 58.075 82.654C53.2 87.2734 47.3834 89.5832 40.625 89.5832ZM40.625 85.4165C45.6834 85.4165 50.0723 83.8832 53.7917 80.8165C57.5084 77.7498 60.175 73.7276 61.7917 68.7498H19.0667C20.825 73.7276 23.5931 77.7498 27.3709 80.8165C31.1459 83.8832 35.5639 85.4165 40.625 85.4165ZM25.5709 54.9665C24.8709 54.9665 24.3848 54.7707 24.1125 54.379C23.8375 53.9873 23.7695 53.4484 23.9084 52.7623C24.0334 52.2984 24.1125 51.8359 24.1459 51.3748C24.1792 50.9137 24.1973 50.4554 24.2 49.9998C24.2 47.6498 23.5056 45.1318 22.1167 42.4457C20.7278 39.7568 20.0334 37.2401 20.0334 34.8957C20.0334 34.3762 20.0681 33.8401 20.1375 33.2873C20.207 32.7346 20.3612 32.1734 20.6 31.604C20.7723 31.2623 21.0084 30.9846 21.3084 30.7707C21.6056 30.5568 21.9528 30.4498 22.35 30.4498C23.0334 30.4498 23.5223 30.6457 23.8167 31.0373C24.1139 31.429 24.1778 31.9679 24.0084 32.654C23.9223 33.0096 23.825 33.7568 23.7167 34.8957C23.7167 36.9207 24.4112 39.3165 25.8 42.0832C27.1889 44.8498 27.8834 47.4887 27.8834 49.9998C27.8834 50.7748 27.8139 51.4693 27.675 52.0832C27.5362 52.6971 27.3903 53.2734 27.2375 53.8123C27.0653 54.154 26.8431 54.4318 26.5709 54.6457C26.2987 54.8596 25.9653 54.9665 25.5709 54.9665ZM52.6542 54.9665C51.9542 54.9665 51.4681 54.7707 51.1959 54.379C50.9209 53.9873 50.8528 53.4484 50.9917 52.7623C51.1167 52.2984 51.1959 51.8359 51.2292 51.3748C51.2625 50.9137 51.2806 50.4554 51.2834 49.9998C51.2834 47.6498 50.5889 45.1318 49.2 42.4457C47.8112 39.7568 47.1167 37.2401 47.1167 34.8957C47.1167 34.3762 47.1514 33.8401 47.2209 33.2873C47.2903 32.7346 47.4445 32.1734 47.6834 31.604C47.8556 31.2623 48.0917 30.9846 48.3917 30.7707C48.6889 30.5568 49.0362 30.4498 49.4334 30.4498C50.1167 30.4498 50.6056 30.6457 50.9 31.0373C51.1973 31.429 51.2612 31.9679 51.0917 32.654C51.0056 33.0096 50.9084 33.7568 50.8 34.8957C50.8 36.9207 51.4945 39.3165 52.8834 42.0832C54.2723 44.8498 54.9667 47.4887 54.9667 49.9998C54.9667 50.7748 54.8973 51.4693 54.7584 52.0832C54.6195 52.6971 54.4737 53.2734 54.3209 53.8123C54.1487 54.154 53.9264 54.4318 53.6542 54.6457C53.382 54.8596 53.0487 54.9665 52.6542 54.9665ZM39.1125 54.9665C38.4125 54.9665 37.9264 54.7707 37.6542 54.379C37.3792 53.9873 37.3112 53.4484 37.45 52.7623C37.575 52.2984 37.6542 51.8359 37.6875 51.3748C37.7209 50.9137 37.7389 50.4554 37.7417 49.9998C37.7417 47.6498 37.0473 45.1318 35.6584 42.4457C34.2695 39.7568 33.575 37.2401 33.575 34.8957C33.575 34.3762 33.6098 33.8401 33.6792 33.2873C33.7487 32.7346 33.9028 32.1734 34.1417 31.604C34.3139 31.2623 34.55 30.9846 34.85 30.7707C35.1473 30.5568 35.4945 30.4498 35.8917 30.4498C36.575 30.4498 37.0639 30.6457 37.3584 31.0373C37.6556 31.429 37.7195 31.9679 37.55 32.654C37.4639 33.0096 37.3667 33.7568 37.2584 34.8957C37.2584 36.9207 37.9528 39.3165 39.3417 42.0832C40.7306 44.8498 41.425 47.4887 41.425 49.9998C41.425 50.7748 41.3556 51.4693 41.2167 52.0832C41.0778 52.6971 40.932 53.2734 40.7792 53.8123C40.607 54.154 40.3848 54.4318 40.1125 54.6457C39.8403 54.8596 39.507 54.9665 39.1125 54.9665Z" fill="#242323"/>
</svg>
